<?xml version="1.0" standalone="no"?>
<!DOCTYPE svg PUBLIC "-//W3C//DTD SVG 20010904//EN"
 "http://www.w3.org/TR/2001/REC-SVG-20010904/DTD/svg10.dtd">
<svg version="1.0" xmlns="http://www.w3.org/2000/svg"
 width="1051.000000pt" height="979.000000pt" viewBox="0 0 1051.000000 979.000000"
 preserveAspectRatio="xMidYMid meet">
<metadata>
Created by potrace 1.16, written by Peter Selinger 2001-2019
</metadata>
<g transform="translate(0.000000,979.000000) scale(0.100000,-0.100000)"
fill="#000000" stroke="none">
<path d="M0 4895 l0 -4895 5255 0 5255 0 0 4895 0 4895 -5255 0 -5255 0 0
-4895z m4203 2740 c18 3 23 -10 7 -20 -5 -3 -10 -1 -10 6 0 7 -8 5 -20 -6 -11
-10 -20 -24 -20 -32 0 -12 -2 -12 -15 1 -8 8 -15 20 -15 26 0 6 -5 8 -12 4 -7
-4 -8 -3 -4 4 4 6 13 9 21 5 10 -3 15 1 15 11 0 13 4 14 18 8 9 -5 25 -8 35
-7z m-6 -41 c-3 -3 -12 -4 -19 -1 -8 3 -5 6 6 6 11 1 17 -2 13 -5z m732 -147
c6 -8 8 -17 4 -20 -3 -4 9 -7 28 -7 26 0 30 -3 19 -10 -12 -8 -9 -10 11 -10
15 0 29 -7 33 -15 3 -8 13 -15 21 -15 19 0 45 -23 45 -39 0 -6 6 -11 13 -11 8
0 27 -11 43 -25 16 -14 35 -25 42 -25 6 0 12 -6 12 -12 1 -17 35 -58 49 -58
14 0 14 -17 1 -25 -5 -3 -10 -1 -10 4 0 6 -4 11 -10 11 -5 0 -10 -8 -10 -18 0
-10 -6 -26 -14 -37 -7 -11 -16 -42 -20 -69 -6 -52 10 -172 25 -182 5 -3 9 -18
9 -34 0 -16 4 -31 9 -34 4 -3 11 -39 14 -81 7 -79 6 -85 -52 -228 -6 -15 -11
-46 -11 -68 0 -32 -7 -47 -35 -76 -19 -20 -35 -42 -35 -48 0 -17 -88 -52 -125
-50 -16 1 -30 7 -30 14 0 7 -7 18 -16 24 -9 7 -19 21 -23 32 -3 11 -19 34 -36
52 -16 18 -30 37 -30 43 0 6 -4 8 -10 5 -6 -4 -10 7 -10 24 0 29 3 31 34 31
29 0 36 5 51 36 13 27 14 38 5 49 -12 15 1 24 55 38 11 2 -2 5 -30 6 -27 1
-68 8 -90 16 l-40 14 40 2 c22 1 54 5 70 9 29 7 29 8 5 10 -14 1 -36 2 -50 1
-24 0 -24 0 5 14 17 8 44 15 60 15 17 1 44 7 62 13 26 10 30 15 20 28 -17 23
-56 41 -73 35 -8 -3 -14 0 -14 6 0 9 -3 9 -11 1 -8 -8 -19 -9 -37 -2 -13 5
-27 7 -30 5 -8 -8 -29 18 -29 37 0 24 59 22 116 -3 24 -11 46 -18 49 -15 9 8
-82 45 -113 45 -39 0 -51 10 -49 38 1 12 -3 22 -9 22 -6 0 -6 5 0 13 5 6 10
29 12 50 1 28 -2 37 -15 37 -8 0 -14 6 -11 13 2 6 9 11 15 10 5 -1 13 4 16 13
3 8 2 12 -3 9 -5 -3 -13 0 -16 6 -8 13 -7 15 24 24 16 5 21 4 17 -4 -4 -6 -1
-11 7 -11 8 0 18 7 21 16 4 10 13 13 28 9 22 -6 22 -5 3 6 -34 22 -97 12 -124
-19 l-24 -27 18 29 17 29 -26 -5 c-14 -3 -26 -1 -26 3 0 11 -53 -9 -62 -24 -4
-6 -10 -8 -14 -4 -4 4 1 14 12 23 18 14 16 15 -28 12 -27 -2 -48 1 -48 6 0 4
-11 1 -25 -8 -14 -9 -25 -12 -25 -6 0 5 -4 10 -10 10 -5 0 -7 -7 -3 -16 3 -9
-3 -21 -16 -30 -11 -8 -21 -21 -21 -29 0 -9 -6 -12 -15 -9 -8 4 -15 1 -15 -6
0 -17 -17 -3 -23 20 -3 11 -2 18 2 16 4 -3 8 13 8 35 2 35 0 39 -18 34 -12 -4
-19 -2 -19 7 0 19 20 37 35 32 8 -3 10 4 7 25 -3 21 2 36 17 52 12 13 21 31
21 41 0 32 19 19 22 -14 2 -18 8 -31 13 -28 6 3 9 13 8 23 -2 11 7 21 22 27
14 5 25 12 25 16 0 3 -7 4 -15 0 -21 -8 -19 8 5 29 16 15 22 16 35 5 13 -11
14 -10 9 4 -9 24 34 57 68 51 17 -3 33 2 43 11 8 9 22 13 30 10 8 -3 25 -1 37
4 13 5 19 9 13 10 -5 0 -3 5 5 10 22 14 76 12 89 -3z m-349 -96 c0 -6 -4 -13
-10 -16 -5 -3 -10 1 -10 9 0 9 5 16 10 16 6 0 10 -4 10 -9z m-66 -484 c3 4 6
1 6 -6 0 -7 4 -10 9 -7 5 3 8 0 7 -7 0 -6 3 -41 7 -76 7 -56 13 -69 46 -101
21 -21 49 -44 62 -51 24 -14 30 -16 51 -18 19 -2 0 -14 -25 -16 -14 -1 -23 -9
-25 -23 -2 -12 -8 -22 -13 -22 -6 0 -8 -4 -4 -9 3 -6 -2 -14 -11 -19 -16 -9
-14 -14 14 -48 36 -43 43 -84 14 -84 -10 0 -24 -6 -31 -12 -8 -9 -44 -13 -104
-13 -51 0 -97 -3 -103 -7 -21 -14 -49 4 -68 41 -22 46 -16 61 45 114 23 21 40
39 38 40 -2 2 -17 11 -32 21 -19 11 -26 23 -23 34 4 10 8 42 10 72 7 88 45
214 70 232 6 4 20 -4 32 -17 12 -13 25 -21 28 -18z m-325 4 c21 -24 26 -43 15
-54 -7 -7 -82 42 -102 66 -11 13 -7 15 27 13 28 -1 45 -8 60 -25z m-43 -42 c4
-8 3 -9 -4 -5 -18 11 -14 0 5 -15 11 -10 14 -10 9 -1 -15 25 13 11 38 -19 35
-42 33 -55 -6 -31 -18 11 -57 27 -85 37 -63 20 -70 28 -37 44 14 6 22 16 18
22 -3 6 8 4 24 -5 17 -9 34 -21 38 -27z m1354 -58 c0 -14 -86 -102 -93 -94 -4
3 -7 -1 -7 -10 0 -9 -4 -17 -10 -17 -35 0 17 78 76 112 34 21 34 20 34 9z
m-1370 -22 c0 -5 -10 -9 -21 -9 -18 0 -19 2 -9 15 12 15 30 12 30 -6z m107
-21 c-3 -8 -6 -5 -6 6 -1 11 2 17 5 13 3 -3 4 -12 1 -19z m673 2 c0 -5 -7 -10
-16 -10 -8 0 -12 5 -9 10 3 6 10 10 16 10 5 0 9 -4 9 -10z m-760 -10 c0 -5 -6
-10 -14 -10 -8 0 -18 5 -21 10 -3 6 3 10 14 10 12 0 21 -4 21 -10z m449 -4 c9
-10 8 -15 -4 -20 -8 -3 -15 -4 -15 -2 0 3 -3 11 -6 20 -8 20 9 21 25 2z m156
3 c11 -17 -1 -21 -15 -4 -8 9 -8 15 -2 15 6 0 14 -5 17 -11z m252 5 c-3 -3
-12 -4 -19 -1 -8 3 -5 6 6 6 11 1 17 -2 13 -5z m488 -13 c-3 -5 -1 -12 5 -16
5 -3 10 -39 10 -80 0 -77 14 -107 25 -54 4 17 9 28 12 25 9 -8 -7 -77 -16 -71
-5 2 -8 -3 -7 -13 1 -17 -3 -17 -46 -5 -12 4 -22 -6 -35 -33 -10 -22 -31 -45
-48 -54 -56 -28 -95 -80 -60 -80 8 0 16 -4 16 -10 1 -5 2 -14 3 -19 3 -21 17
-23 36 -6 27 25 25 36 -4 25 -19 -7 -26 -5 -30 6 -10 27 -7 31 27 37 17 3 40
8 50 12 25 10 23 -44 -5 -92 -27 -47 -35 -53 -74 -53 -44 0 -57 20 -49 72 13
87 46 241 55 258 5 10 6 20 3 24 -3 3 -1 6 5 6 6 0 13 -8 16 -18 4 -11 18 -30
32 -43 21 -20 27 -21 35 -9 9 15 9 28 -7 118 -5 34 -3 46 11 62 18 20 51 29
40 11z m-105 -85 c0 -3 -4 -8 -10 -11 -5 -3 -10 -1 -10 4 0 6 5 11 10 11 6 0
10 -2 10 -4z m-1400 -46 c0 -5 -4 -10 -10 -10 -5 0 -10 5 -10 10 0 6 5 10 10
10 6 0 10 -4 10 -10z m1504 -171 c-24 -27 -30 -15 -9 18 12 17 20 23 23 15 2
-7 -4 -22 -14 -33z m16 -46 c-1 -14 -30 -47 -36 -41 -6 7 17 48 28 48 5 0 8
-3 8 -7z m-852 -35 c7 -7 12 -22 12 -33 0 -26 20 -45 75 -73 46 -23 72 -49 77
-77 3 -17 -2 -19 -32 -17 -19 2 -53 7 -75 12 -22 5 -75 10 -118 11 -43 2 -81
7 -83 11 -3 4 -26 8 -52 9 -51 0 -108 17 -64 18 13 1 20 5 17 11 -4 6 -15 8
-26 5 -10 -4 -24 -3 -31 2 -8 5 25 10 77 13 65 4 84 8 70 14 -11 5 -29 19 -41
31 -20 21 -20 23 -2 34 10 6 30 11 45 11 16 1 42 7 58 15 38 17 78 18 93 3z
m-51 -234 c4 -12 8 -11 18 3 12 16 15 16 32 2 10 -9 24 -14 31 -12 6 3 12 -3
12 -12 0 -9 5 -13 10 -10 6 3 10 0 10 -8 0 -19 -36 -50 -52 -45 -7 3 -18 -2
-25 -11 -9 -13 -14 -14 -24 -3 -17 16 -29 15 -29 -2 0 -23 21 -24 75 -3 27 11
62 20 76 21 14 0 33 7 41 14 13 10 17 10 22 -3 3 -8 1 -15 -5 -15 -7 0 -9 -10
-5 -25 4 -14 2 -33 -3 -42 -27 -50 -58 -193 -41 -193 5 0 10 -7 10 -15 0 -8 7
-15 15 -15 8 0 15 -4 15 -9 0 -17 -12 -41 -21 -41 -4 0 -21 -12 -36 -26 -28
-26 -99 -63 -161 -83 -31 -10 -32 -9 -26 14 5 19 2 25 -10 25 -9 0 -16 -4 -16
-10 0 -17 -45 -11 -57 8 -11 18 -7 72 6 72 3 0 12 -4 20 -9 13 -9 41 8 41 24
0 10 30 38 30 28 1 -22 30 34 30 58 0 26 -21 54 -33 43 -3 -3 -14 -1 -26 5
-13 7 -22 8 -26 1 -7 -11 -52 -13 -106 -4 -28 5 -38 13 -48 38 -9 22 -14 27
-18 16 -4 -8 -13 -21 -21 -29 -12 -12 -15 -12 -23 0 -5 8 -9 22 -9 32 0 12 -8
17 -30 17 -21 0 -30 5 -30 16 0 14 7 16 41 11 32 -4 39 -2 35 9 -4 11 8 14 62
15 37 0 83 2 102 5 19 2 46 4 60 5 14 0 34 6 44 11 20 11 20 11 -3 19 -15 6
-29 4 -42 -5 -25 -17 -69 -9 -69 13 0 10 -5 7 -13 -9 -14 -27 -29 -29 -127
-17 -91 11 -136 58 -108 111 10 18 12 17 28 -15 l18 -34 7 28 c6 23 13 27 40
27 28 0 32 -3 28 -19 -3 -10 -1 -21 4 -24 5 -3 9 4 9 16 -1 12 4 22 9 23 6 0
17 4 25 7 59 25 228 33 237 11z m438 -332 c-14 -10 -18 -132 -4 -132 6 0 8 -7
5 -16 -8 -21 4 -40 15 -23 13 22 22 3 9 -21 -14 -25 -5 -87 12 -92 8 -3 12
-28 13 -65 0 -34 2 -59 4 -57 3 2 14 -13 26 -33 18 -33 25 -38 53 -35 26 3 32
0 32 -16 0 -23 27 -37 44 -23 6 5 27 10 47 13 32 3 35 2 34 -22 -1 -14 -7 -38
-14 -53 -6 -16 -11 -32 -11 -36 0 -19 -98 -121 -116 -121 -8 0 -14 -6 -14 -13
0 -30 -25 -65 -46 -63 -15 1 -19 6 -16 18 2 10 8 15 13 12 5 -3 9 0 9 6 0 7
-8 9 -21 5 -16 -5 -22 -1 -32 24 -6 17 -17 31 -23 31 -6 0 -19 12 -29 26 -13
21 -14 28 -4 34 8 6 -2 13 -30 21 -26 8 -40 17 -37 25 3 7 -2 18 -10 24 -8 7
-14 23 -14 36 0 14 -8 25 -19 29 -12 3 -21 17 -23 33 -2 21 -10 28 -38 34 -27
6 -38 3 -50 -10 -8 -9 -28 -25 -43 -35 -15 -10 -25 -22 -22 -27 3 -5 -4 -14
-16 -20 -13 -7 -19 -8 -15 -2 3 6 1 14 -4 17 -7 4 -8 19 -5 36 6 26 4 29 -21
29 -16 0 -36 10 -50 25 -13 14 -27 25 -33 25 -17 0 -22 19 -11 40 6 11 17 20
24 20 7 0 40 26 73 58 218 209 326 300 358 301 7 1 7 -2 0 -7z m1140 -302 c-3
-5 -1 -10 4 -10 6 0 11 5 11 10 0 6 18 10 40 10 22 0 40 -4 40 -9 0 -5 14 -14
30 -20 17 -5 30 -14 30 -19 0 -15 -35 -20 -56 -9 -10 6 -34 12 -53 14 -36 4
-61 18 -61 34 0 5 5 9 11 9 5 0 7 -4 4 -10z m-512 -20 c-6 -22 -18 -26 -29 -8
-4 6 -3 8 3 5 6 -4 13 0 17 8 8 22 15 18 9 -5z m747 -10 c0 -5 -4 -10 -9 -10
-6 0 -13 5 -16 10 -3 6 1 10 9 10 9 0 16 -4 16 -10z m30 -21 c0 -5 -4 -9 -10
-9 -5 0 -10 7 -10 16 0 8 5 12 10 9 6 -3 10 -10 10 -16z m73 -41 c2 4 2 1 0
-6 -1 -8 13 -33 32 -56 19 -24 35 -50 35 -60 0 -9 5 -16 11 -16 5 0 8 -4 5 -9
-3 -5 1 -11 9 -15 8 -3 15 -15 15 -26 0 -11 5 -20 10 -20 6 0 10 -9 10 -20 0
-11 5 -20 10 -20 6 0 10 -7 10 -15 0 -8 3 -15 8 -15 4 0 8 -15 9 -33 2 -17 8
-36 15 -42 7 -5 13 -16 14 -22 2 -29 4 -34 13 -29 5 4 7 -4 3 -16 -3 -14 -2
-19 6 -14 7 4 12 5 12 2 0 -15 -20 -13 -40 4 -12 10 -27 21 -32 22 -6 2 -11
14 -12 26 0 13 -5 26 -11 30 -10 7 -14 24 -20 77 -3 36 -73 185 -86 185 -5 0
-9 6 -9 13 0 8 -16 30 -35 50 -41 42 -45 56 -11 33 14 -8 26 -12 29 -8z m-3
-79 c0 -17 -9 -9 -24 24 l-16 32 20 -24 c11 -13 20 -27 20 -32z m-278 19 c-7
-7 -12 -8 -12 -2 0 14 12 26 19 19 2 -3 -1 -11 -7 -17z m-572 -18 c0 -5 -2
-10 -4 -10 -3 0 -8 5 -11 10 -3 6 -1 10 4 10 6 0 11 -4 11 -10z m347 -9 c1
-11 -8 -27 -20 -38 -22 -18 -22 -18 -4 3 9 11 17 24 17 29 0 4 -8 1 -17 -6
-15 -11 -14 -10 1 9 23 27 21 26 23 3z m266 -11 c-3 -12 -8 -19 -11 -16 -5 6
5 36 12 36 2 0 2 -9 -1 -20z m77 -10 c0 -11 -2 -20 -4 -20 -2 0 -6 9 -9 20 -3
11 -1 20 4 20 5 0 9 -9 9 -20z m-59 -21 c-9 -22 -10 -22 -10 -3 -1 11 2 24 6
27 12 12 14 0 4 -24z m-769 -31 c-4 -18 -12 -33 -17 -33 -15 0 -13 50 3 68 20
23 26 9 14 -35z m136 30 c-7 -13 -11 -26 -10 -30 3 -13 -9 -9 -26 9 -16 16
-16 16 1 10 14 -5 20 -2 24 13 3 11 9 20 15 20 5 0 3 -10 -4 -22z m459 -20
c-3 -7 -5 -2 -5 12 0 14 2 19 5 13 2 -7 2 -19 0 -25z m241 4 c7 7 8 -2 1 -33
-12 -52 -23 -67 -17 -21 5 36 -8 45 -15 10 -3 -16 -5 -12 -6 12 -2 29 -4 32
-11 15 -7 -16 -9 -17 -9 -3 -1 9 2 24 5 32 6 14 8 14 24 -3 12 -15 20 -17 28
-9z m173 -4 c10 -13 18 -33 19 -44 0 -12 11 -29 25 -38 14 -10 22 -22 19 -31
-4 -11 -12 -6 -32 18 -15 18 -37 43 -49 57 -23 25 -28 41 -16 53 10 10 13 9
34 -15z m-154 -70 c-2 -13 -4 -5 -4 17 -1 22 1 32 4 23 2 -10 2 -28 0 -40z
m-547 15 c0 -14 -3 -23 -7 -20 -3 4 -12 -1 -19 -11 -12 -15 -13 -14 -12 13 2
38 6 45 24 45 9 0 14 -10 14 -27z m277 -40 c-2 -16 -4 -5 -4 22 0 28 2 40 4
28 2 -13 2 -35 0 -50z m290 -5 c-2 -13 -4 -3 -4 22 0 25 2 35 4 23 2 -13 2
-33 0 -45z m25 -10 c2 -20 0 -34 -4 -32 -4 3 -7 26 -7 52 1 49 5 42 11 -20z
m27 -37 c1 -51 -5 -34 -12 29 -4 36 -3 46 3 30 4 -14 8 -40 9 -59z m76 51 c-3
-3 -11 0 -18 7 -9 10 -8 11 6 5 10 -3 15 -9 12 -12z m-224 -25 c-10 -9 -11 -8
-5 6 3 10 9 15 12 12 3 -3 0 -11 -7 -18z m177 -62 l1 -20 -9 20 c-5 11 -8 34
-8 50 l0 30 8 -30 c4 -16 8 -39 8 -50z m54 56 c17 -17 18 -19 3 -17 -9 1 -21
10 -27 19 -12 23 -2 21 24 -2z m-152 -1 c0 -5 -5 -10 -11 -10 -5 0 -7 5 -4 10
3 6 8 10 11 10 2 0 4 -4 4 -10z m-185 -20 c3 -5 2 -10 -4 -10 -5 0 -13 5 -16
10 -3 6 -2 10 4 10 5 0 13 -4 16 -10z m202 -12 c-3 -8 -6 -5 -6 6 -1 11 2 17
5 13 3 -3 4 -12 1 -19z m210 -3 c9 -24 -1 -27 -20 -5 -14 17 -15 20 -2 20 9 0
18 -7 22 -15z m-110 -17 c-3 -8 -6 -5 -6 6 -1 11 2 17 5 13 3 -3 4 -12 1 -19z
m3133 6 c0 -8 -4 -12 -10 -9 -5 3 -10 10 -10 16 0 5 5 9 10 9 6 0 10 -7 10
-16z m-3203 -19 c-1 0 -11 -8 -23 -18 -20 -16 -21 -16 -21 0 0 24 29 46 39 30
4 -6 6 -12 5 -12z m-227 -13 c0 -15 -2 -15 -10 -2 -13 20 -13 33 0 25 6 -3 10
-14 10 -23z m28 -13 c-3 -8 -7 -3 -11 10 -4 17 -3 21 5 13 5 -5 8 -16 6 -23z
m139 9 c-3 -8 -6 -5 -6 6 -1 11 2 17 5 13 3 -3 4 -12 1 -19z m223 -12 c14 -18
13 -19 -2 -13 -13 4 -16 2 -11 -11 4 -12 3 -14 -5 -7 -6 6 -9 21 -5 33 3 13 6
21 7 20 1 -2 8 -12 16 -22z m-1676 -2 c11 -28 6 -51 -14 -69 -22 -20 -30 -17
-32 11 -4 55 30 99 46 58z m843 -31 c-3 -10 -5 -2 -5 17 0 19 2 27 5 18 2 -10
2 -26 0 -35z m888 -4 c6 -27 25 -41 25 -19 0 6 9 1 21 -11 28 -28 18 -34 -23
-13 -18 10 -36 17 -40 16 -3 -1 -9 5 -12 14 -3 8 -2 12 4 9 6 -3 10 -2 10 4 0
5 -4 13 -10 16 -15 10 -12 25 4 19 8 -3 18 -19 21 -35z m-275 22 c0 -5 -7 -14
-15 -21 -16 -14 -18 -10 -9 14 6 17 24 22 24 7z m45 -22 c-5 -22 -4 -29 4 -25
6 4 11 2 11 -3 0 -13 -3 -13 -23 -5 -12 4 -13 11 -4 35 15 38 20 37 12 -2z
m22 9 c-3 -8 -6 -5 -6 6 -1 11 2 17 5 13 3 -3 4 -12 1 -19z m58 12 c3 -5 1
-10 -4 -10 -6 0 -11 5 -11 10 0 6 2 10 4 10 3 0 8 -4 11 -10z m-1405 -20 c0
-5 -2 -10 -4 -10 -3 0 -8 5 -11 10 -3 6 -1 10 4 10 6 0 11 -4 11 -10z m687
-67 c-2 -16 -4 -3 -4 27 0 30 2 43 4 28 2 -16 2 -40 0 -55z m20 15 c-2 -13 -4
-3 -4 22 0 25 2 35 4 23 2 -13 2 -33 0 -45z m673 37 c0 -8 -4 -15 -10 -15 -5
0 -7 7 -4 15 4 8 8 15 10 15 2 0 4 -7 4 -15z m-320 -28 c0 -5 -4 -5 -10 -2 -5
3 -10 14 -10 23 0 15 2 15 10 2 5 -8 10 -19 10 -23z m220 23 c0 -5 -5 -10 -11
-10 -5 0 -7 5 -4 10 3 6 8 10 11 10 2 0 4 -4 4 -10z m-176 -16 c3 -8 2 -12 -4
-9 -6 3 -10 10 -10 16 0 14 7 11 14 -7z m389 -11 c-5 -13 -2 -15 11 -10 10 4
24 1 32 -7 16 -17 19 -56 3 -56 -6 0 -8 8 -4 19 4 14 -1 21 -24 29 -16 6 -32
8 -35 5 -3 -4 -6 1 -6 10 0 13 6 19 27 26 1 1 -1 -7 -4 -16z m-836 -45 c-2
-13 -4 -5 -4 17 -1 22 1 32 4 23 2 -10 2 -28 0 -40z m630 30 c-3 -8 -6 -5 -6
6 -1 11 2 17 5 13 3 -3 4 -12 1 -19z m-199 -13 c-3 -3 -9 2 -12 12 -6 14 -5
15 5 6 7 -7 10 -15 7 -18z m260 11 c-7 -8 -15 -12 -17 -11 -5 6 10 25 20 25 5
0 4 -6 -3 -14z m309 -29 c-3 -27 -16 -48 -41 -67 -16 -12 -18 -12 -11 -1 4 8
8 26 9 40 1 19 6 26 19 25 13 -2 16 3 11 18 -4 14 -2 18 5 14 6 -4 10 -17 8
-29z m2953 9 c0 -7 -7 -13 -15 -13 -8 0 -15 8 -15 18 0 12 5 16 15 13 8 -4 15
-12 15 -18z m-3243 -8 c-3 -8 -6 -5 -6 6 -1 11 2 17 5 13 3 -3 4 -12 1 -19z
m231 2 c3 -9 -1 -11 -12 -7 -10 4 -15 3 -11 -3 3 -6 1 -10 -4 -10 -6 0 -11 9
-11 19 0 22 31 23 38 1z m-524 -6 c3 -8 2 -12 -4 -9 -6 3 -10 10 -10 16 0 14
7 11 14 -7z m246 6 c0 -5 -4 -10 -10 -10 -5 0 -10 5 -10 10 0 6 5 10 10 10 6
0 10 -4 10 -10z m181 -35 c17 -19 34 -33 38 -30 12 7 9 -29 -2 -36 -6 -4 -3
-16 7 -30 23 -33 21 -37 -19 -37 -28 0 -35 4 -35 19 0 10 -5 19 -11 19 -5 0
-7 5 -4 10 3 6 2 10 -3 10 -19 0 -33 55 -23 83 6 15 13 27 16 27 3 0 19 -16
36 -35z m-1219 -25 c-12 -12 -22 -18 -22 -14 0 12 33 45 38 39 3 -3 -4 -14
-16 -25z m1035 8 c-3 -8 -6 -5 -6 6 -1 11 2 17 5 13 3 -3 4 -12 1 -19z m283
15 c0 -5 -5 -15 -10 -23 -8 -12 -10 -11 -10 8 0 12 5 22 10 22 6 0 10 -3 10
-7z m-1096 -29 c3 -8 2 -12 -4 -9 -6 3 -10 10 -10 16 0 14 7 11 14 -7z m546 6
c0 -5 -2 -10 -4 -10 -3 0 -8 5 -11 10 -3 6 -1 10 4 10 6 0 11 -4 11 -10z m-25
-10 c3 -5 1 -10 -4 -10 -6 0 -11 5 -11 10 0 6 2 10 4 10 3 0 8 -4 11 -10z
m620 -20 c-4 -14 -2 -20 8 -20 8 0 14 7 13 16 0 9 6 19 14 22 13 5 13 3 1 -11
-10 -13 -10 -17 -1 -17 9 0 9 -4 -1 -17 -12 -14 -12 -16 1 -11 11 4 16 0 16
-13 0 -17 -2 -17 -23 -4 -12 8 -28 12 -36 9 -8 -3 -18 -1 -22 5 -3 7 0 8 9 5
18 -7 21 7 5 23 -12 12 -4 33 12 33 6 0 7 -9 4 -20z m-634 -7 c13 -16 12 -17
-3 -4 -10 7 -18 15 -18 17 0 8 8 3 21 -13z m326 -13 c-7 -17 -13 -26 -15 -21
-3 10 15 51 22 51 3 0 -1 -14 -7 -30z m-1027 17 c0 -2 -10 -12 -22 -23 l-23
-19 19 23 c18 21 26 27 26 19z m710 -61 c0 -5 -7 -1 -15 10 -8 10 -14 24 -14
29 0 6 6 1 14 -9 8 -11 15 -24 15 -30z m-803 -13 c-3 -10 -5 -2 -5 17 0 19 2
27 5 18 2 -10 2 -26 0 -35z m282 -12 c0 -14 -1 -14 -6 -1 -3 8 -10 24 -15 35
-9 20 -9 20 6 1 9 -11 16 -27 15 -35z m-1081 27 c15 -15 16 -48 1 -48 -16 0
-39 26 -39 44 0 19 21 21 38 4z m729 -10 c-3 -8 -6 -5 -6 6 -1 11 2 17 5 13 3
-3 4 -12 1 -19z m857 -4 c9 -24 2 -26 -12 -4 -7 11 -8 20 -3 20 5 0 12 -7 15
-16z m620 -10 c3 -8 2 -12 -4 -9 -6 3 -10 10 -10 16 0 14 7 11 14 -7z m45 -38
c-1 -17 -2 -18 -6 -3 -2 9 -8 17 -13 17 -4 0 -10 9 -13 21 -5 20 -5 20 14 3
10 -9 18 -27 18 -38z m41 37 c2 -2 -2 -8 -10 -13 -12 -8 -12 -10 1 -15 9 -3
16 -12 16 -19 0 -22 -27 -6 -33 20 -3 13 -10 24 -15 24 -5 0 -9 5 -9 11 0 9
37 4 50 -8z m-733 -15 c-3 -8 -6 -5 -6 6 -1 11 2 17 5 13 3 -3 4 -12 1 -19z
m279 -14 c8 -20 13 -38 11 -40 -2 -2 -11 14 -20 36 -19 50 -12 53 9 4z m-1079
-36 c-2 -13 -4 -3 -4 22 0 25 2 35 4 23 2 -13 2 -33 0 -45z m1193 58 c0 -2 -7
-7 -16 -10 -8 -3 -12 -2 -9 4 6 10 25 14 25 6z m-1173 -38 c-3 -8 -6 -5 -6 6
-1 11 2 17 5 13 3 -3 4 -12 1 -19z m1163 8 c0 -2 -7 -7 -16 -10 -8 -3 -12 -2
-9 4 6 10 25 14 25 6z m65 -6 c-3 -5 -11 -10 -16 -10 -6 0 -7 5 -4 10 3 6 11
10 16 10 6 0 7 -4 4 -10z m92 -22 c-3 -7 -5 -2 -5 12 0 14 2 19 5 13 2 -7 2
-19 0 -25z m-2537 12 c0 -5 -2 -10 -4 -10 -3 0 -8 5 -11 10 -3 6 -1 10 4 10 6
0 11 -4 11 -10z m5700 -21 c0 -10 -4 -19 -10 -19 -5 0 -10 12 -10 26 0 14 4
23 10 19 6 -3 10 -15 10 -26z m-4665 -24 c-9 -20 -18 -35 -21 -33 -2 3 3 22
11 43 9 20 18 35 21 33 2 -3 -3 -22 -11 -43z m982 13 c-3 -7 -5 -2 -5 12 0 14
2 19 5 13 2 -7 2 -19 0 -25z m383 28 c0 -2 -9 -6 -20 -9 -11 -3 -18 -1 -14 4
5 9 34 13 34 5z m-1005 -71 c-4 -25 -9 -44 -12 -41 -2 2 -1 25 2 51 4 25 9 44
12 41 2 -2 1 -25 -2 -51z m995 40 c-14 -8 -29 -14 -35 -14 -5 0 1 6 15 14 14
8 30 14 35 14 6 0 -1 -6 -15 -14z m295 4 c4 -5 8 -27 10 -47 1 -20 5 -44 8
-52 8 -22 5 -50 -5 -44 -15 9 -40 78 -29 82 6 2 6 15 0 35 -11 39 -11 37 0 37
6 0 13 -5 16 -11z m32 -6 c14 -17 14 -17 8 2 -5 16 -4 17 6 8 9 -9 9 -15 1
-26 -9 -11 -8 -24 7 -58 11 -24 22 -62 26 -84 4 -22 9 -47 12 -55 4 -8 7 -39
8 -69 2 -47 0 -52 -11 -36 -7 10 -11 22 -8 27 7 11 -35 80 -45 74 -4 -3 -8 1
-8 9 0 11 4 12 14 4 16 -14 18 2 2 18 -7 7 -8 17 -2 28 9 16 10 16 16 1 4 -10
3 -15 -3 -11 -14 9 -12 -7 5 -29 13 -18 14 -17 10 13 -2 18 -8 38 -13 44 -5 7
-12 23 -15 37 -3 14 -12 46 -21 73 -16 50 -13 58 11 30z m-1386 -34 c-5 -13
-10 -19 -10 -12 -1 15 10 45 15 40 3 -2 0 -15 -5 -28z m1123 22 c3 -5 -2 -15
-12 -22 -15 -12 -16 -12 -5 2 7 9 10 19 6 22 -3 4 -4 7 0 7 3 0 8 -4 11 -9z
m-64 -16 c-14 -8 -32 -14 -40 -14 -8 0 -1 6 15 14 40 18 57 18 25 0z m3313
-10 c-5 -16 -33 -21 -33 -7 0 13 22 32 31 26 5 -2 6 -11 2 -19z m-5688 5 c3
-5 1 -10 -4 -10 -6 0 -11 5 -11 10 0 6 2 10 4 10 3 0 8 -4 11 -10z m2385 -14
c-8 -8 -26 -17 -40 -20 -19 -5 -17 -2 10 13 42 24 49 26 30 7z m60 0 c0 -2 -8
-10 -17 -17 -16 -13 -17 -12 -4 4 13 16 21 21 21 13z m-1255 -46 c3 -5 1 -10
-4 -10 -6 0 -11 5 -11 10 0 6 2 10 4 10 3 0 8 -4 11 -10z m1102 -22 c-3 -8 -6
-5 -6 6 -1 11 2 17 5 13 3 -3 4 -12 1 -19z m83 12 c-8 -5 -22 -9 -30 -9 -10 0
-8 3 5 9 27 12 43 12 25 0z m246 -8 c-3 -3 -1 -11 6 -19 6 -8 13 -26 14 -41 2
-20 1 -23 -6 -12 -5 8 -10 24 -11 35 -1 17 -2 17 -6 2 -3 -10 -10 -14 -16 -11
-7 4 -1 -4 12 -19 31 -34 55 -25 47 17 -4 19 -3 27 3 21 26 -28 11 -73 -31
-88 -20 -7 -48 16 -49 41 -1 11 -4 7 -9 -8 -7 -22 -8 -20 -9 15 -1 65 7 83 35
77 14 -2 22 -7 20 -10z m-1266 -12 c8 -5 11 -10 5 -10 -5 0 -17 5 -25 10 -8 5
-10 10 -5 10 6 0 17 -5 25 -10z m1025 0 c-3 -5 -12 -10 -18 -10 -7 0 -6 4 3
10 19 12 23 12 15 0z m-2345 -10 c0 -5 -5 -10 -11 -10 -5 0 -7 5 -4 10 3 6 8
10 11 10 2 0 4 -4 4 -10z m2408 -8 c-25 -36 -67 -82 -73 -82 -4 0 12 23 35 50
41 49 64 68 38 32z m-490 -17 c-3 -3 -9 2 -12 12 -6 14 -5 15 5 6 7 -7 10 -15
7 -18z m342 10 c0 -8 -2 -15 -4 -15 -2 0 -6 7 -10 15 -3 8 -1 15 4 15 6 0 10
-7 10 -15z m120 12 c0 -2 -14 -16 -32 -33 -18 -16 -26 -20 -18 -9 19 25 50 52
50 42z m20 -57 c-31 -39 -49 -54 -33 -27 14 25 58 74 62 71 2 -2 -11 -21 -29
-44z m117 -2 c-2 -13 -4 -5 -4 17 -1 22 1 32 4 23 2 -10 2 -28 0 -40z m-37 14
c0 -15 -2 -15 -10 -2 -13 20 -13 33 0 25 6 -3 10 -14 10 -23z m-2476 2 c3 -8
2 -12 -4 -9 -6 3 -10 10 -10 16 0 14 7 11 14 -7z m2493 -16 c-3 -7 -5 -2 -5
12 0 14 2 19 5 13 2 -7 2 -19 0 -25z m-1342 12 c3 -6 -1 -7 -9 -4 -18 7 -21
14 -7 14 6 0 13 -4 16 -10z m1286 -27 c-11 -16 -11 -15 -5 6 4 17 3 21 -6 16
-9 -6 -11 -4 -5 4 5 9 11 9 17 3 7 -7 6 -16 -1 -29z m-941 -42 c-1 -13 -29 45
-29 59 0 8 6 0 14 -19 8 -18 15 -36 15 -40z m-1512 34 c-3 -3 -9 2 -12 12 -6
14 -5 15 5 6 7 -7 10 -15 7 -18z m-11 -45 c-2 -29 -17 -24 -17 6 0 14 4 23 9
19 6 -3 9 -14 8 -25z m2472 -22 c-7 -23 -17 -47 -22 -53 -7 -7 -8 -4 -4 7 3 9
11 35 17 58 6 23 14 40 16 37 3 -3 0 -25 -7 -49z m225 40 c-3 -5 -10 -6 -15
-3 -5 3 -6 0 -3 -8 3 -8 1 -18 -5 -22 -7 -4 -8 -13 -2 -23 7 -14 8 -49 1 -72
-1 -4 -39 109 -40 118 0 1 7 2 15 2 8 0 15 4 15 9 0 6 9 9 19 8 11 0 17 -5 15
-9z m-1195 -28 c11 -24 11 -24 -3 -6 -9 11 -16 24 -16 30 0 12 5 7 19 -24z
m1053 -45 c3 -40 2 -61 -3 -50 -7 19 -13 132 -5 124 2 -2 6 -35 8 -74z m-58
18 c-3 -27 -11 -52 -16 -58 -7 -7 -8 -3 -5 10 3 11 9 37 13 58 9 54 16 46 8
-10z m103 15 c-3 -7 -5 -2 -5 12 0 14 2 19 5 13 2 -7 2 -19 0 -25z m-194 7
c-3 -9 -8 -14 -10 -11 -3 3 -2 9 2 15 9 16 15 13 8 -4z m31 -19 c-3 -14 -10
-26 -15 -26 -4 0 -3 14 3 31 12 36 22 33 12 -5z m-1154 4 c-6 -11 -13 -20 -16
-20 -2 0 0 9 6 20 6 11 13 20 16 20 2 0 0 -9 -6 -20z m1297 -27 c-3 -10 -5 -2
-5 17 0 19 2 27 5 18 2 -10 2 -26 0 -35z m137 26 c11 -16 12 -27 4 -44 -10
-23 -38 -24 -38 -3 0 6 7 8 15 4 21 -8 19 11 -2 24 -17 11 -17 11 0 6 12 -4
17 -2 14 6 -2 7 -12 12 -22 10 -10 -2 -14 1 -10 7 10 17 22 13 39 -10z m-197
-56 c-2 -16 -4 -5 -4 22 0 28 2 40 4 28 2 -13 2 -35 0 -50z m-3652 47 c3 -5 1
-10 -4 -10 -6 0 -11 5 -11 10 0 6 2 10 4 10 3 0 8 -4 11 -10z m3779 -50 c9
-30 12 -50 8 -45 -8 10 -32 84 -32 100 0 17 9 -2 24 -55z m-281 43 c-7 -2 -19
-2 -25 0 -7 3 -2 5 12 5 14 0 19 -2 13 -5z m266 -83 c0 -15 -28 48 -28 65 0
11 6 2 14 -20 8 -22 15 -42 14 -45z m-3743 39 c4 -8 1 -8 -14 0 -12 6 -24 16
-28 22 -4 8 -1 8 14 0 12 -6 24 -16 28 -22z m1101 9 c-3 -8 -6 -5 -6 6 -1 11
2 17 5 13 3 -3 4 -12 1 -19z m1303 8 c0 -2 -8 -10 -17 -17 -16 -13 -17 -12 -4
4 13 16 21 21 21 13z m18 -25 c-13 -16 -32 -34 -43 -41 -11 -7 -2 6 20 29 45
48 57 54 23 12z m1436 -1 c-6 -6 -10 -3 -10 10 0 13 4 16 10 10 7 -7 7 -13 0
-20z m-145 -23 c1 -5 -3 -5 -9 -2 -5 3 -10 16 -9 28 0 21 1 21 9 2 5 -11 9
-24 9 -28z m-1684 23 c-3 -5 -12 -10 -18 -10 -7 0 -6 4 3 10 19 12 23 12 15 0z
m-2051 -16 c3 -8 2 -12 -4 -9 -6 3 -10 10 -10 16 0 14 7 11 14 -7z m2486 2 c0
-2 -7 -7 -16 -10 -8 -3 -12 -2 -9 4 6 10 25 14 25 6z m1363 -13 c-7 -17 -20
-17 -26 1 -4 10 0 14 12 13 11 -1 17 -7 14 -14z m57 -8 c-7 -9 -15 -13 -17
-11 -6 6 20 36 26 30 2 -2 -2 -10 -9 -19z m-315 -5 c-3 -5 -12 -10 -18 -10 -7
0 -6 4 3 10 19 12 23 12 15 0z m-3155 -21 c0 -5 -4 -9 -10 -9 -5 0 -10 7 -10
16 0 8 5 12 10 9 6 -3 10 -10 10 -16z m657 -1 c-3 -8 -6 -5 -6 6 -1 11 2 17 5
13 3 -3 4 -12 1 -19z m1393 14 c0 -4 -15 -16 -32 -26 l-33 -18 30 26 c34 28
35 29 35 18z m1135 -12 c-3 -5 -12 -10 -18 -10 -7 0 -6 4 3 10 19 12 23 12 15
0z m297 -12 c-6 -6 -15 -8 -19 -4 -4 4 -1 11 7 16 8 5 17 7 19 4 3 -2 -1 -10
-7 -16z m-3785 -10 c-3 -8 -6 -5 -6 6 -1 11 2 17 5 13 3 -3 4 -12 1 -19z
m1194 5 c13 -16 12 -17 -3 -4 -17 13 -22 21 -14 21 2 0 10 -8 17 -17z m2389
-18 c-13 -14 -28 -25 -33 -25 -6 0 3 13 19 29 35 35 47 32 14 -4z m30 -2 c-11
-17 -11 -17 -6 0 3 10 6 24 7 30 0 9 2 9 5 0 3 -7 0 -20 -6 -30z m31 10 c-12
-20 -14 -14 -5 12 4 9 9 14 11 11 3 -2 0 -13 -6 -23z m89 17 c0 -13 -37 -50
-50 -50 -6 0 2 13 17 29 33 34 33 34 33 21z m-3820 -37 c0 -32 -5 -28 -14 10
-4 19 -3 26 4 22 5 -3 10 -18 10 -32z m1247 15 c-3 -8 -6 -5 -6 6 -1 11 2 17
5 13 3 -3 4 -12 1 -19z m2532 19 c-2 -1 -12 -9 -22 -16 -15 -12 -17 -12 -11 3
3 9 13 16 22 16 8 0 13 -1 11 -3z m-165 -32 c-25 -19 -40 -19 -24 0 7 8 20 15
28 15 13 0 12 -3 -4 -15z m226 1 c0 -8 -7 -16 -15 -20 -12 -4 -13 -2 -2 14 14
24 17 25 17 6z m40 3 c0 -4 -7 -9 -15 -13 -9 -3 -15 0 -15 8 0 7 7 13 15 13 8
0 15 -4 15 -8z m-170 -44 c-7 -8 -18 -15 -26 -15 -9 0 -5 8 9 23 23 23 37 17
17 -8z m-3740 15 c0 -5 -2 -10 -4 -10 -3 0 -8 5 -11 10 -3 6 -1 10 4 10 6 0
11 -4 11 -10z m1380 0 c0 -5 -4 -10 -10 -10 -5 0 -10 5 -10 10 0 6 5 10 10 10
6 0 10 -4 10 -10z m2027 -22 c-3 -7 -5 -2 -5 12 0 14 2 19 5 13 2 -7 2 -19 0
-25z m229 4 c-18 -16 -18 -16 -6 6 6 13 14 21 18 18 3 -4 -2 -14 -12 -24z
m-104 -4 c-7 -7 -12 -8 -12 -2 0 14 12 26 19 19 2 -3 -1 -11 -7 -17z m68 18
c0 -2 -11 -11 -25 -20 -14 -9 -25 -13 -25 -8 0 5 10 14 23 20 27 13 27 13 27
8z m267 -48 c-3 -7 -5 -2 -5 12 0 14 2 19 5 13 2 -7 2 -19 0 -25z m53 14 c0
-12 -3 -12 -15 -2 -8 7 -15 13 -15 15 0 1 7 2 15 2 8 0 15 -7 15 -15z m3050 8
c13 -9 13 -11 0 -20 -19 -12 -27 -12 -35 0 -7 11 2 30 13 30 4 0 14 -5 22 -10z
m-3386 -19 c-10 -10 -21 -17 -23 -15 -6 6 20 34 32 34 6 0 2 -8 -9 -19z m71 9
c-3 -5 -11 -10 -16 -10 -6 0 -7 5 -4 10 3 6 11 10 16 10 6 0 7 -4 4 -10z m145
-34 c0 -12 -5 -7 -19 24 -11 24 -11 24 3 6 9 -11 16 -24 16 -30z m-110 30 c0
-3 -4 -8 -10 -11 -5 -3 -10 -1 -10 4 0 6 5 11 10 11 6 0 10 -2 10 -4z m197
-18 c-3 -8 -6 -5 -6 6 -1 11 2 17 5 13 3 -3 4 -12 1 -19z m70 -36 c8 -19 12
-43 9 -55 -3 -12 -1 -40 4 -62 5 -22 8 -41 6 -42 -1 -1 -31 12 -66 30 -41 20
-58 33 -47 35 10 2 25 -2 33 -9 13 -10 17 -10 24 0 5 9 10 10 14 2 4 -6 13
-11 19 -11 9 0 9 2 0 8 -16 10 -21 48 -5 45 17 -4 15 17 -6 52 -10 17 -16 39
-14 50 4 15 6 16 9 5 3 -8 12 -30 20 -48z m-420 16 c-3 -7 -5 -2 -5 12 0 14 2
19 5 13 2 -7 2 -19 0 -25z m-36 -1 c-10 -9 -11 -8 -5 6 3 10 9 15 12 12 3 -3
0 -11 -7 -18z m149 8 c-7 -8 -18 -15 -24 -15 -6 0 -2 7 8 15 25 19 32 19 16 0z
m-50 -5 c0 -5 -5 -10 -11 -10 -5 0 -7 5 -4 10 3 6 8 10 11 10 2 0 4 -4 4 -10z
m144 -6 c3 -8 2 -12 -4 -9 -6 3 -10 10 -10 16 0 14 7 11 14 -7z m92 -1 c-4 -9
4 -32 18 -53 23 -35 23 -37 5 -33 -11 3 -22 10 -26 16 -3 6 -1 7 5 3 7 -4 12
-2 12 3 0 6 -9 16 -19 23 -16 9 -17 16 -8 35 12 26 22 32 13 6z m21 -5 c-3 -8
-6 -5 -6 6 -1 11 2 17 5 13 3 -3 4 -12 1 -19z m-167 8 c0 -2 -7 -7 -16 -10 -8
-3 -12 -2 -9 4 6 10 25 14 25 6z m3180 -6 c0 -5 -4 -10 -10 -10 -5 0 -10 5
-10 10 0 6 5 10 10 10 6 0 10 -4 10 -10z m-4435 -10 c-11 -5 -27 -9 -35 -9 -9
0 -8 4 5 9 11 5 27 9 35 9 9 0 8 -4 -5 -9z m1488 -57 c-9 -25 -10 -23 -9 20 1
35 3 42 10 28 5 -11 4 -31 -1 -48z m-509 31 c9 -23 -3 -42 -30 -47 -16 -3 -24
0 -24 9 0 8 9 14 20 14 11 0 20 4 20 9 0 20 -16 18 -44 -4 -18 -14 -24 -25
-17 -29 21 -13 12 -63 -14 -80 -28 -19 -34 -10 -7 10 16 13 16 15 -6 33 -32
28 -21 66 26 90 38 20 67 18 76 -5z m326 1 c14 -19 14 -19 -2 -6 -10 7 -18 18
-18 24 0 6 1 8 3 6 1 -2 9 -13 17 -24z m133 10 c-3 -9 -8 -14 -10 -11 -3 3 -2
9 2 15 9 16 15 13 8 -4z m-121 -40 c3 3 11 -1 18 -10 8 -10 9 -15 1 -15 -6 0
-11 6 -11 13 0 8 -3 9 -8 1 -4 -7 -16 0 -31 20 l-25 31 25 -23 c14 -12 28 -20
31 -17z m-1345 19 c-3 -3 -12 -4 -19 -1 -8 3 -5 6 6 6 11 1 17 -2 13 -5z
m1128 -4 c3 -5 1 -10 -4 -10 -6 0 -11 5 -11 10 0 6 2 10 4 10 3 0 8 -4 11 -10z
m263 -7 c-8 -10 -14 -10 -24 -2 -18 15 -18 15 11 15 19 0 22 -3 13 -13z m-193
-3 c3 -5 1 -10 -4 -10 -6 0 -11 5 -11 10 0 6 2 10 4 10 3 0 8 -4 11 -10z m295
-25 c0 -5 -5 -3 -10 5 -5 8 -10 20 -10 25 0 6 5 3 10 -5 5 -8 10 -19 10 -25z
m-2065 5 c10 -11 16 -20 13 -20 -3 0 -13 9 -23 20 -10 11 -16 20 -13 20 3 0
13 -9 23 -20z m1880 10 c3 -5 1 -10 -4 -10 -6 0 -11 5 -11 10 0 6 2 10 4 10 3
0 8 -4 11 -10z m-1312 -7 c-7 -2 -19 -2 -25 0 -7 3 -2 5 12 5 14 0 19 -2 13
-5z m1421 -14 c-7 -11 -34 -12 -34 -1 0 14 11 21 26 15 8 -3 11 -9 8 -14z
m2966 11 c0 -5 -4 -10 -10 -10 -5 0 -10 5 -10 10 0 6 5 10 10 10 6 0 10 -4 10
-10z m-6420 -20 c-6 -11 -13 -20 -16 -20 -2 0 0 9 6 20 6 11 13 20 16 20 2 0
0 -9 -6 -20z m-310 -17 c0 -19 -3 -24 -10 -17 -6 6 -8 18 -4 27 9 24 14 21 14
-10z m2327 11 c-3 -3 -12 -4 -19 -1 -8 3 -5 6 6 6 11 1 17 -2 13 -5z m1327 -5
c-4 -7 1 -7 16 1 12 6 24 9 28 6 3 -3 0 -6 -6 -6 -7 0 -12 -5 -12 -10 0 -7 6
-7 19 0 24 12 64 13 57 1 -4 -5 2 -7 13 -4 10 3 22 -1 26 -8 5 -8 4 -10 -3 -5
-8 5 -10 1 -5 -10 4 -11 8 -13 11 -6 5 15 35 15 50 0 7 -7 12 -25 12 -40 0
-16 7 -31 15 -34 8 -4 15 -15 15 -25 0 -10 4 -19 8 -19 10 0 30 -61 43 -134 5
-28 11 -58 12 -66 2 -8 7 -36 11 -62 5 -27 11 -48 15 -48 3 0 7 -24 9 -52 2
-29 8 -71 14 -93 6 -22 11 -55 12 -72 1 -20 6 -33 14 -33 9 0 10 -5 2 -19 -13
-25 -13 -34 0 -26 6 3 10 -3 10 -14 0 -11 -4 -23 -10 -26 -5 -3 -10 -15 -10
-26 0 -11 5 -17 10 -14 6 4 10 -5 8 -24 -1 -17 -6 -31 -10 -31 -4 0 -8 -4 -8
-10 0 -5 7 -7 15 -4 9 4 15 0 15 -9 0 -8 -6 -17 -12 -20 -10 -4 -10 -7 0 -18
6 -7 12 -24 13 -39 0 -23 1 -23 9 -5 6 12 7 -14 3 -70 -6 -89 -23 -134 -50
-135 -7 0 -13 -4 -13 -10 0 -5 -9 -10 -19 -10 -11 0 -23 -4 -26 -10 -3 -5 -17
2 -30 18 -26 31 -30 29 -38 -15 -5 -27 -3 -33 16 -39 12 -5 25 -7 30 -6 4 1 7
-3 7 -8 0 -19 -5 -25 -17 -22 -7 2 -13 -1 -13 -7 0 -5 25 -8 55 -8 30 1 55 7
55 12 0 6 7 -3 15 -19 17 -33 19 -50 5 -41 -5 3 -10 2 -10 -4 0 -5 4 -11 10
-13 12 -4 17 -139 5 -158 -6 -10 -4 -12 7 -7 14 5 15 1 7 -26 -5 -18 -9 -58
-9 -89 0 -31 -4 -60 -10 -63 -5 -3 -10 -1 -10 4 0 19 -20 12 -21 -6 -1 -17 -2
-17 -6 -1 -4 14 -8 15 -29 6 -14 -6 -23 -17 -20 -24 3 -7 -4 -16 -15 -19 -10
-4 -19 -11 -19 -17 0 -6 -29 -8 -80 -5 -57 3 -78 1 -73 -7 4 -6 -3 -3 -14 7
-20 17 -22 17 -30 2 -7 -11 -20 -16 -39 -13 -18 2 -37 -4 -51 -16 -31 -26 -29
-36 7 -36 17 0 30 5 30 10 0 6 6 10 14 10 12 0 34 -68 24 -74 -43 -27 -149
-27 -178 0 -12 12 -17 11 -37 -8 -18 -17 -26 -19 -35 -10 -9 9 -8 12 4 12 26
0 29 16 5 18 -27 3 -99 -19 -109 -33 -5 -6 -11 -5 -17 4 -5 8 -14 10 -21 6 -9
-6 -11 -4 -5 4 5 10 -5 12 -41 9 -27 -2 -50 1 -51 6 -3 19 -27 24 -50 9 -13
-8 -23 -11 -23 -5 0 5 -11 17 -24 25 -23 15 -26 15 -50 -10 -21 -21 -26 -23
-26 -8 0 11 -5 15 -14 12 -8 -3 -17 -1 -19 6 -4 12 -22 13 -332 19 -49 1 -93
5 -96 11 -4 5 -15 3 -27 -4 -17 -11 -24 -11 -33 -2 -8 8 -31 10 -68 6 -34 -3
-100 1 -165 12 -96 15 -112 15 -145 2 -31 -13 -39 -13 -56 -1 -26 19 -101 18
-109 -1 -5 -15 -36 -21 -36 -7 0 9 -77 14 -107 7 -13 -3 -23 -14 -25 -28 l-3
-22 -216 0 c-153 0 -221 4 -231 12 -9 8 -25 10 -44 4 -30 -8 -99 4 -121 21 -7
5 -17 7 -23 3 -6 -4 -20 1 -31 11 -18 16 -25 17 -82 4 -34 -7 -70 -13 -79 -12
-9 0 -20 -8 -23 -18 -3 -10 -19 -22 -36 -25 -17 -4 -33 -13 -36 -21 -3 -8 -9
-14 -15 -14 -5 0 -20 -13 -33 -28 -60 -71 -210 -107 -425 -103 -171 3 -188 20
-186 192 1 117 10 139 55 139 15 0 46 9 69 20 24 12 48 18 53 14 6 -4 14 -2
18 3 14 22 195 103 230 103 41 0 102 15 148 36 38 17 43 17 43 0 0 -7 -18 -26
-40 -41 -22 -15 -40 -31 -40 -36 0 -13 163 1 188 17 13 8 28 27 33 42 26 67
52 74 164 42 38 -11 84 -20 101 -20 17 0 37 -7 45 -16 10 -13 29 -15 108 -10
53 3 113 5 134 5 20 0 37 4 37 9 0 9 162 23 282 26 32 0 58 4 58 7 0 3 22 4
50 1 32 -3 55 0 65 8 11 9 19 10 26 3 7 -7 22 -8 43 -2 31 10 170 22 216 20
65 -3 97 0 117 10 17 9 26 8 43 -4 15 -10 30 -13 44 -8 11 5 35 7 51 6 17 -2
60 -6 98 -9 38 -4 67 -3 67 3 0 5 16 12 36 15 19 4 50 16 67 27 18 10 39 19
48 19 9 0 26 9 39 20 26 23 50 26 51 8 0 -10 2 -10 5 -1 3 7 12 9 20 6 8 -3
21 0 29 7 8 6 19 9 24 6 5 -4 18 2 28 13 12 13 35 21 68 23 44 3 50 6 49 25 0
13 4 19 10 15 13 -8 59 -3 66 8 3 4 23 13 45 20 29 10 40 10 43 1 7 -21 19
-11 15 12 -3 17 0 23 16 24 12 1 19 -2 16 -8 -4 -5 -2 -9 4 -9 5 0 11 5 13 10
4 13 108 20 108 7 0 -5 12 -6 26 -3 19 5 24 4 18 -5 -5 -8 -2 -11 7 -7 49 18
57 18 62 -1 4 -18 8 -19 31 -8 14 7 26 18 26 26 0 11 4 11 18 -2 20 -18 37
-23 27 -8 -3 5 5 17 17 25 12 9 17 16 10 16 -6 0 -12 10 -11 23 0 12 3 16 6
10 5 -15 43 -18 43 -4 0 5 -7 11 -15 15 -8 3 -15 13 -15 23 -1 17 -1 17 -14 0
-13 -17 -15 -15 -26 19 -12 35 -11 37 23 68 32 28 33 32 15 33 -29 3 -33 10
-19 40 11 23 10 29 -5 40 -16 12 -16 13 7 14 13 1 31 0 38 -1 12 -1 13 1 2 14
-9 11 -22 13 -44 9 -31 -6 -31 -5 -16 13 9 10 19 30 22 43 5 21 3 23 -25 17
-26 -5 -29 -4 -18 9 7 8 19 15 26 15 8 0 14 5 14 11 0 5 -5 7 -11 3 -6 -3 -3
8 5 25 15 27 15 30 1 25 -10 -4 -15 -2 -13 7 2 10 -5 13 -22 11 -23 -2 -24 -2
-7 12 18 14 18 15 -5 19 -21 4 -21 4 4 6 30 1 50 21 21 21 -9 0 -30 14 -45 32
-25 30 -26 34 -12 55 13 20 13 23 -1 23 -8 0 -15 4 -15 9 0 4 -11 6 -24 4 -15
-3 -25 1 -29 11 -8 21 10 31 28 16 10 -9 15 -9 15 -1 0 6 -11 18 -25 27 -29
19 -32 36 -9 58 10 11 11 16 3 16 -7 0 -10 2 -7 5 8 9 38 -6 32 -16 -3 -5 -1
-9 5 -9 17 0 22 18 6 24 -8 3 -15 12 -15 20 0 15 -30 16 -43 1 -5 -6 -6 -1 -2
10 3 11 8 45 10 75 4 50 3 53 -11 36 -11 -16 -14 -17 -14 -4 0 9 -3 25 -6 35
-5 15 -4 15 5 3 9 -13 11 -11 11 7 0 12 7 26 16 31 12 7 13 11 5 16 -7 4 -18
2 -26 -4 -8 -7 -20 -10 -27 -7 -9 4 -8 6 3 6 9 1 24 17 35 36 10 20 24 33 31
31 7 -3 15 4 18 15 4 10 13 19 21 19 19 0 18 35 -3 51 -15 12 -16 12 -8 -1 4
-8 -3 -4 -17 10 -26 26 -27 40 -2 40 9 0 12 -5 8 -11z m-2676 -56 c-16 -20
-30 -5 -17 19 9 16 13 18 20 7 4 -8 3 -19 -3 -26z m2677 -13 c9 -15 -20 -28
-42 -19 -31 11 -20 38 13 31 13 -2 26 -8 29 -12z m3065 4 c0 -8 -5 -12 -10 -9
-6 4 -8 11 -5 16 9 14 15 11 15 -7z m-3117 -63 c-3 -11 -12 -22 -20 -25 -7 -3
-12 -2 -10 2 2 4 7 15 10 25 9 23 26 22 20 -2z m-2628 -159 c-3 -3 -11 0 -18
7 -9 10 -8 11 6 5 10 -3 15 -9 12 -12z m-933 -54 c-8 -34 -22 -29 -22 7 0 30
2 34 13 23 8 -7 12 -20 9 -30z m903 14 c-3 -3 -11 0 -18 7 -9 10 -8 11 6 5 10
-3 15 -9 12 -12z m1075 -107 c0 -5 -5 -3 -10 5 -5 8 -10 20 -10 25 0 6 5 3 10
-5 5 -8 10 -19 10 -25z m4350 -4 c0 -12 -20 -25 -27 -18 -7 7 6 27 18 27 5 0
9 -4 9 -9z m-87 -78 c9 -8 -43 -64 -53 -58 -13 8 2 54 19 58 26 7 27 7 34 0z
m-84 -107 c-14 -15 -22 0 -13 26 7 22 7 22 14 3 4 -11 4 -24 -1 -29z m-4779
-3 c0 -20 -23 -11 -26 9 -1 11 3 15 12 11 8 -3 14 -12 14 -20z m1710 -170 c1
-10 3 -58 7 -107 5 -80 4 -88 -10 -75 -8 8 -11 16 -6 17 6 2 4 11 -3 20 -11
13 -11 14 2 7 13 -8 13 -7 1 8 -9 12 -10 17 -2 17 9 0 9 5 1 21 -7 11 -9 27
-6 34 3 8 0 15 -5 17 -13 4 -1 58 12 58 5 0 9 -8 9 -17z m-2843 -146 c-6 -20
-27 -19 -27 2 0 14 5 19 15 14 9 -3 14 -10 12 -16z m5603 -16 c0 -12 -20 -25
-27 -18 -7 7 6 27 18 27 5 0 9 -4 9 -9z m-5691 -464 c0 -21 -1 -21 -9 -2 -12
28 -12 37 0 30 6 -3 10 -16 9 -28z m229 -101 l24 -13 -36 -17 c-28 -13 -57
-16 -124 -14 -80 3 -87 5 -90 25 -4 26 11 30 123 31 49 1 89 -4 103 -12z
m3719 -58 c-3 -8 -6 -5 -6 6 -1 11 2 17 5 13 3 -3 4 -12 1 -19z m-7 -226 c0
-13 -12 -22 -22 -16 -10 6 -1 24 13 24 5 0 9 -4 9 -8z m950 -31 c0 -12 -20
-25 -27 -18 -7 7 6 27 18 27 5 0 9 -4 9 -9z m-960 -73 c-1 -22 -1 -23 -15 -4
-10 13 -15 15 -15 6 0 -7 -3 -11 -6 -7 -9 9 5 27 22 27 8 0 14 -9 14 -22z
m114 -57 c3 -5 31 -12 62 -16 56 -7 64 -12 28 -18 -26 -4 -45 -17 -39 -27 3
-4 -2 -11 -11 -14 -11 -4 -15 -2 -11 8 3 8 -1 20 -10 27 -13 11 -17 10 -29 -6
-29 -42 -54 -66 -54 -53 0 11 -2 10 -9 -1 -13 -21 -51 22 -51 59 0 32 1 33 70
31 33 -1 41 1 30 8 -13 9 -13 11 2 11 9 0 19 -4 22 -9z m79 2 c-7 -2 -19 -2
-25 0 -7 3 -2 5 12 5 14 0 19 -2 13 -5z m97 -14 c0 -5 -4 -9 -10 -9 -5 0 -10
7 -10 16 0 8 5 12 10 9 6 -3 10 -10 10 -16z m81 8 c-1 -12 -15 -9 -19 4 -3 6
1 10 8 8 6 -3 11 -8 11 -12z m246 -9 c-3 -9 0 -19 7 -22 6 -2 3 -5 -6 -5 -9
-1 -24 6 -32 15 -9 8 -24 14 -33 13 -28 -2 -35 0 -28 11 4 6 27 9 51 8 37 -2
44 -6 41 -20z m78 -38 c3 -5 1 -10 -4 -10 -6 0 -11 5 -11 10 0 6 2 10 4 10 3
0 8 -4 11 -10z m-570 -30 c3 -5 1 -10 -4 -10 -6 0 -11 5 -11 10 0 6 2 10 4 10
3 0 8 -4 11 -10z m-25 -50 c0 -5 -5 -10 -11 -10 -5 0 -7 5 -4 10 3 6 8 10 11
10 2 0 4 -4 4 -10z m-60 -109 c0 -6 -5 -13 -10 -16 -6 -4 -8 -11 -5 -16 4 -5
1 -9 -4 -9 -12 0 -15 33 -4 43 9 10 23 8 23 -2z m70 -21 c0 -5 -2 -10 -4 -10
-3 0 -8 5 -11 10 -3 6 -1 10 4 10 6 0 11 -4 11 -10z m-3662 -457 c2 -8 -6 -13
-22 -13 -25 0 -33 10 -19 24 10 10 36 3 41 -11z m105 -2 c6 -26 -44 -55 -83
-46 -26 6 -28 8 -16 21 8 8 21 14 28 14 7 0 22 7 32 15 26 20 33 19 39 -4z
m337 -58 c0 -26 -41 -63 -69 -62 -62 1 -63 13 -3 46 67 37 72 38 72 16z m-206
-9 c8 -21 3 -26 -18 -18 -20 8 -21 34 -2 34 8 0 17 -7 20 -16z m516 -68 c0 -7
-11 -23 -25 -36 -22 -20 -29 -22 -67 -14 l-42 9 60 31 c59 32 74 34 74 10z
m-200 -12 c0 -11 -5 -14 -16 -10 -9 3 -18 6 -20 6 -3 0 -2 5 1 10 10 16 35 12
35 -6z m523 -47 c3 -8 -9 -25 -27 -39 -24 -19 -39 -24 -64 -20 -17 2 -32 7
-32 11 0 7 90 58 106 60 7 0 14 -5 17 -12z m-189 -16 c7 -11 -14 -20 -31 -13
-7 2 -10 8 -7 13 7 12 31 12 38 0z m973 -257 c-3 -3 -12 -4 -19 -1 -8 3 -5 6
6 6 11 1 17 -2 13 -5z"/>
<path d="M4965 7090 c-18 -8 -17 -9 8 -9 15 -1 27 -6 27 -12 0 -5 -4 -8 -9 -4
-5 3 -13 1 -16 -5 -4 -6 -3 -10 2 -9 20 3 43 -2 41 -9 -5 -15 100 -115 111
-107 19 11 12 40 -14 65 -14 13 -25 30 -25 37 0 8 -4 12 -8 9 -5 -3 -22 8 -37
24 -30 31 -45 35 -80 20z"/>
<path d="M4530 6465 c-10 -12 -9 -16 3 -21 21 -7 48 -2 48 11 1 17 -39 25 -51
10z"/>
<path d="M4090 6846 c0 -2 7 -7 16 -10 8 -3 12 -2 9 4 -6 10 -25 14 -25 6z"/>
<path d="M4890 5340 c0 -5 5 -10 10 -10 6 0 10 5 10 10 0 6 -4 10 -10 10 -5 0
-10 -4 -10 -10z"/>
<path d="M6651 5073 c7 -12 15 -20 18 -17 3 2 -3 12 -13 22 -17 16 -18 16 -5
-5z"/>
<path d="M6727 4853 c-4 -3 -7 -11 -7 -17 0 -6 5 -5 12 2 6 6 9 14 7 17 -3 3
-9 2 -12 -2z"/>
<path d="M6831 4368 c6 -10 14 -16 19 -13 13 8 2 32 -15 32 -10 0 -11 -5 -4
-19z"/>
<path d="M6670 3754 c0 -8 5 -12 10 -9 6 3 10 10 10 16 0 5 -4 9 -10 9 -5 0
-10 -7 -10 -16z"/>
<path d="M6700 3749 c0 -5 5 -7 10 -4 6 3 10 8 10 11 0 2 -4 4 -10 4 -5 0 -10
-5 -10 -11z"/>
<path d="M6705 3719 c-11 -16 -1 -19 13 -3 7 8 8 14 3 14 -5 0 -13 -5 -16 -11z"/>
<path d="M6820 3131 c0 -5 5 -13 10 -16 6 -3 10 -2 10 4 0 5 -4 13 -10 16 -5
3 -10 2 -10 -4z"/>
<path d="M6850 2950 c0 -5 5 -10 10 -10 6 0 10 5 10 10 0 6 -4 10 -10 10 -5 0
-10 -4 -10 -10z"/>
<path d="M7083 2795 c0 -22 2 -30 4 -17 2 12 2 30 0 40 -3 9 -5 -1 -4 -23z"/>
<path d="M6900 2733 c0 -19 -37 -53 -59 -53 -22 0 -27 -15 -13 -38 7 -10 13
-6 28 13 10 14 24 25 30 25 11 0 27 51 18 59 -2 2 -4 0 -4 -6z"/>
<path d="M6570 2640 c0 -5 5 -10 10 -10 6 0 10 5 10 10 0 6 -4 10 -10 10 -5 0
-10 -4 -10 -10z"/>
<path d="M6450 2629 c0 -5 5 -7 10 -4 6 3 10 8 10 11 0 2 -4 4 -10 4 -5 0 -10
-5 -10 -11z"/>
<path d="M6796 2625 c4 -8 10 -15 15 -15 4 0 6 7 3 15 -4 8 -10 15 -15 15 -4
0 -6 -7 -3 -15z"/>
<path d="M4280 2191 c-12 -8 -11 -13 5 -31 18 -20 28 -21 130 -18 60 1 122 -1
138 -6 20 -6 27 -5 27 6 0 15 -36 42 -60 44 -90 11 -228 13 -240 5z"/>
<path d="M4608 2153 c6 -2 18 -2 25 0 6 3 1 5 -13 5 -14 0 -19 -2 -12 -5z"/>
<path d="M4790 2100 c0 -5 5 -10 10 -10 6 0 10 5 10 10 0 6 -4 10 -10 10 -5 0
-10 -4 -10 -10z"/>
<path d="M4858 2093 c12 -2 32 -2 45 0 12 2 2 4 -23 4 -25 0 -35 -2 -22 -4z"/>
<path d="M4825 2060 c3 -5 10 -10 16 -10 5 0 9 5 9 10 0 6 -7 10 -16 10 -8 0
-12 -4 -9 -10z"/>
<path d="M6675 3830 c3 -5 8 -10 11 -10 2 0 4 5 4 10 0 6 -5 10 -11 10 -5 0
-7 -4 -4 -10z"/>
</g>
</svg>
