<?xml version="1.0" encoding="UTF-8"?><svg id="Layer_1" xmlns="http://www.w3.org/2000/svg" viewBox="0 0 419.87 96.59"><defs><style>.cls-1{fill:#fff;}</style></defs><g><path class="cls-1" d="M92.77,96.59H58.76v-31.29h-24.74v28.59c0,1.49-1.21,2.7-2.7,2.7s-2.7-1.21-2.7-2.7V59.89h35.54v31.29h23.22V19.29c0-1.49,1.21-2.7,2.7-2.7s2.7,1.21,2.7,2.7V96.59Z"/><path class="cls-1" d="M2.7,80c-1.49,0-2.7-1.21-2.7-2.7V0H34.02V31.29h24.74V2.7C58.76,1.21,59.97,0,61.46,0s2.7,1.21,2.7,2.7V36.69H28.62V5.4H5.4V77.3c0,1.49-1.21,2.7-2.7,2.7"/></g><g><polygon class="cls-1" points="146.63 28.92 146.63 61.1 142.03 61.1 142.03 46.75 123.55 46.75 123.55 61.1 118.96 61.1 118.96 28.92 123.55 28.92 123.55 42.75 142.03 42.75 142.03 28.92 146.63 28.92"/><g><path class="cls-1" d="M177.2,36.73l-11.81,26.8c-1.04,2.48-2.26,4.23-3.65,5.24-1.4,1.01-3.07,1.52-5.03,1.52-1.19,0-2.35-.19-3.47-.58-1.12-.38-2.04-.94-2.78-1.68l1.88-3.31c1.26,1.19,2.71,1.79,4.37,1.79,1.07,0,1.97-.28,2.69-.85,.72-.57,1.37-1.54,1.95-2.92l.78-1.7-10.76-24.32h4.6l8.5,19.49,8.41-19.49h4.32Z"/><path class="cls-1" d="M198.09,56.43c1.24-.72,2.22-1.73,2.94-3.03,.72-1.3,1.08-2.8,1.08-4.48s-.36-3.18-1.08-4.48c-.72-1.3-1.7-2.3-2.94-3.01-1.24-.7-2.64-1.06-4.21-1.06s-2.92,.36-4.16,1.08c-1.24,.72-2.22,1.72-2.94,3.01-.72,1.29-1.08,2.77-1.08,4.46s.35,3.18,1.06,4.48c.7,1.3,1.68,2.31,2.94,3.03,1.26,.72,2.65,1.08,4.18,1.08s2.96-.36,4.21-1.08m2.51-18.36c1.87,1.04,3.33,2.5,4.39,4.37,1.06,1.87,1.59,4.03,1.59,6.48s-.53,4.62-1.59,6.5c-1.06,1.88-2.52,3.35-4.39,4.39-1.87,1.04-3.98,1.56-6.34,1.56-1.75,0-3.35-.34-4.8-1.01-1.46-.67-2.69-1.65-3.7-2.94v12.6h-4.41V36.73h4.23v3.86c.98-1.35,2.22-2.37,3.72-3.06,1.5-.69,3.16-1.03,4.96-1.03,2.36,0,4.47,.52,6.34,1.56"/><path class="cls-1" d="M217.36,42.16c-1.43,1.29-2.26,2.97-2.51,5.06h15.63c-.25-2.05-1.08-3.73-2.51-5.03-1.42-1.3-3.19-1.95-5.31-1.95s-3.88,.64-5.31,1.93m17.26,8.23h-19.77c.28,2.15,1.22,3.87,2.83,5.17,1.61,1.3,3.61,1.95,6,1.95,2.91,0,5.26-.98,7.03-2.94l2.44,2.85c-1.1,1.29-2.48,2.27-4.11,2.94-1.64,.67-3.47,1.01-5.49,1.01-2.57,0-4.86-.53-6.85-1.59-1.99-1.06-3.53-2.54-4.62-4.44-1.09-1.9-1.63-4.05-1.63-6.44s.53-4.49,1.59-6.39c1.06-1.9,2.51-3.38,4.37-4.44,1.85-1.06,3.95-1.59,6.28-1.59s4.4,.53,6.23,1.59c1.82,1.06,3.25,2.54,4.28,4.44,1.03,1.9,1.54,4.08,1.54,6.53,0,.34-.03,.78-.09,1.33"/><path class="cls-1" d="M248.45,37.61c1.5-.74,3.32-1.1,5.47-1.1v4.27c-.25-.03-.58-.05-1.01-.05-2.39,0-4.27,.71-5.63,2.14-1.36,1.43-2.05,3.46-2.05,6.09v12.14h-4.41v-24.36h4.23v4.09c.77-1.41,1.9-2.48,3.4-3.22"/><path class="cls-1" d="M259.35,36.73h4.41v24.36h-4.41v-24.36Zm.07-5.52c-.57-.55-.85-1.23-.85-2.02s.28-1.48,.85-2.05c.57-.57,1.28-.85,2.14-.85s1.57,.27,2.14,.8c.57,.54,.85,1.2,.85,2s-.28,1.52-.85,2.09c-.57,.57-1.28,.85-2.14,.85s-1.57-.28-2.14-.83"/><path class="cls-1" d="M286.82,56.43c1.24-.72,2.21-1.73,2.92-3.03,.71-1.3,1.06-2.8,1.06-4.48s-.35-3.18-1.06-4.48c-.71-1.3-1.68-2.3-2.92-3.01-1.24-.7-2.64-1.06-4.21-1.06s-2.96,.35-4.21,1.06c-1.24,.71-2.22,1.71-2.94,3.01-.72,1.3-1.08,2.8-1.08,4.48s.36,3.18,1.08,4.48c.72,1.3,1.7,2.31,2.94,3.03,1.24,.72,2.64,1.08,4.21,1.08s2.97-.36,4.21-1.08m-10.73,3.33c-1.93-1.07-3.44-2.55-4.53-4.44-1.09-1.88-1.63-4.02-1.63-6.41s.54-4.53,1.63-6.41c1.09-1.88,2.6-3.36,4.53-4.41,1.93-1.06,4.11-1.59,6.53-1.59s4.59,.53,6.5,1.59c1.92,1.06,3.42,2.53,4.51,4.41s1.63,4.02,1.63,6.41-.54,4.53-1.63,6.41c-1.09,1.88-2.59,3.36-4.51,4.44-1.91,1.07-4.08,1.61-6.5,1.61s-4.6-.54-6.53-1.61"/><path class="cls-1" d="M321.75,39.19c1.82,1.79,2.73,4.42,2.73,7.88v14.02h-4.41v-13.52c0-2.36-.57-4.14-1.7-5.33-1.13-1.19-2.76-1.79-4.87-1.79-2.39,0-4.28,.7-5.65,2.09-1.38,1.4-2.07,3.4-2.07,6v12.55h-4.41v-24.36h4.23v3.68c.89-1.26,2.09-2.22,3.61-2.9,1.52-.67,3.24-1.01,5.17-1.01,3.1,0,5.55,.9,7.38,2.69"/><path class="cls-1" d="M346.6,57.1c2.6,0,4.9-.51,6.87-1.52,1.98-1.01,3.5-2.43,4.57-4.25,1.07-1.82,1.61-3.93,1.61-6.32s-.54-4.5-1.61-6.32c-1.07-1.82-2.6-3.24-4.57-4.25-1.98-1.01-4.27-1.52-6.87-1.52h-8.69v24.18h8.69Zm-13.29-28.18h13.56c3.4,0,6.42,.67,9.06,2.02,2.63,1.35,4.68,3.24,6.14,5.68,1.46,2.44,2.18,5.23,2.18,8.39s-.73,5.95-2.18,8.39c-1.46,2.44-3.5,4.33-6.14,5.68-2.64,1.35-5.65,2.02-9.06,2.02h-13.56V28.92Z"/><path class="cls-1" d="M375.31,42.16c-1.43,1.29-2.26,2.97-2.51,5.06h15.63c-.24-2.05-1.08-3.73-2.51-5.03-1.42-1.3-3.19-1.95-5.31-1.95s-3.88,.64-5.31,1.93m17.26,8.23h-19.77c.28,2.15,1.22,3.87,2.83,5.17,1.61,1.3,3.61,1.95,6,1.95,2.91,0,5.25-.98,7.03-2.94l2.44,2.85c-1.1,1.29-2.48,2.27-4.11,2.94-1.64,.67-3.47,1.01-5.49,1.01-2.57,0-4.86-.53-6.85-1.59-1.99-1.06-3.53-2.54-4.62-4.44-1.09-1.9-1.63-4.05-1.63-6.44s.53-4.49,1.59-6.39c1.06-1.9,2.51-3.38,4.37-4.44,1.85-1.06,3.95-1.59,6.28-1.59s4.4,.53,6.23,1.59c1.82,1.06,3.25,2.54,4.27,4.44,1.03,1.9,1.54,4.08,1.54,6.53,0,.34-.03,.78-.09,1.33"/></g><polygon class="cls-1" points="415.55 36.73 407 56.27 398.63 36.73 394.04 36.73 404.7 61.1 409.21 61.1 419.87 36.73 415.55 36.73"/></g></svg>