<svg xmlns="http://www.w3.org/2000/svg" width="57.66" height="53.98" viewBox="0 0 57.66 53.98">
  <g id="immersive-full-stack-and-software-engineer-bootcamp-logo-color" transform="translate(-1.53 -3.53)">
    <ellipse id="Ellipse_162" data-name="Ellipse 162" cx="28.83" cy="4.466" rx="28.83" ry="4.466" transform="translate(1.53 48.577)" fill="#e0e0e0" style="mix-blend-mode: multiply;isolation: isolate"/>
    <g id="Group_5589" data-name="Group 5589" transform="translate(2.572 4.077)">
      <path id="Rectangle_5142" data-name="Rectangle 5142" d="M5.041,4.26h51.3a2.121,2.121,0,0,1,2.1,2.121v4.2H2.92v-4.2A2.121,2.121,0,0,1,5.041,4.26Z" transform="translate(-2.92 -4.26)" fill="#3475a6"/>
    </g>
    <g id="Group_5590" data-name="Group 5590" transform="translate(2.025 3.53)">
      <path id="Path_8890" data-name="Path 8890" d="M55.256,40.821H5.795a3.6,3.6,0,0,1-3.6-3.6V7.135a3.6,3.6,0,0,1,3.6-3.6H55.256a3.612,3.612,0,0,1,3.6,3.6V37.216a3.612,3.612,0,0,1-3.6,3.6ZM5.795,4.632a2.518,2.518,0,0,0-2.511,2.5V37.216a2.511,2.511,0,0,0,2.511,2.511H55.256a2.518,2.518,0,0,0,2.511-2.511V7.135a2.518,2.518,0,0,0-2.511-2.5Z" transform="translate(-2.19 -3.53)" fill="#3475a6"/>
    </g>
    <g id="Group_5591" data-name="Group 5591" transform="translate(23.87 39.727)">
      <path id="Path_8891" data-name="Path 8891" d="M43.846,60.953H32.23l1.589-8.393h8.423Z" transform="translate(-31.563 -52.013)" fill="#fff"/>
      <path id="Path_8892" data-name="Path 8892" d="M44.282,61.318H31.34l1.806-9.488h9.33ZM32.666,60.2H42.956l-1.379-7.277H34.083Z" transform="translate(-31.34 -51.83)" fill="#3475a6"/>
    </g>
    <g id="Group_5592" data-name="Group 5592" transform="translate(18.42 48.052)">
      <path id="Path_8893" data-name="Path 8893" d="M47.384,64.1h-22.8a.585.585,0,0,1,0-1.162h22.8a.585.585,0,0,1,0,1.162Z" transform="translate(-24.068 -62.94)" fill="#3475a6"/>
    </g>
    <g id="Ellipse_12" data-name="Ellipse 12" transform="translate(6.244 6.415)">
      <circle id="Ellipse_148" data-name="Ellipse 148" cx="1.012" cy="1.012" r="1.012" transform="translate(0 0)" fill="#fff"/>
    </g>
    <g id="Ellipse_13" data-name="Ellipse 13" transform="translate(9.406 6.415)">
      <circle id="Ellipse_149" data-name="Ellipse 149" cx="1.012" cy="1.012" r="1.012" transform="translate(0 0)" fill="#fff"/>
    </g>
    <g id="Ellipse_14" data-name="Ellipse 14" transform="translate(12.599 6.415)">
      <circle id="Ellipse_150" data-name="Ellipse 150" cx="1.012" cy="1.012" r="1.012" transform="translate(0 0)" fill="#fff"/>
    </g>
    <g id="Group_5593" data-name="Group 5593" transform="translate(2.572 9.848)">
      <rect id="Rectangle_5143" data-name="Rectangle 5143" width="56.131" height="1.094" fill="#3475a6"/>
    </g>
    <g id="Group_5600" data-name="Group 5600" transform="translate(12.524 9.848)">
      <g id="Group_5594" data-name="Group 5594" transform="translate(0 4.481)">
        <rect id="Rectangle_5144" data-name="Rectangle 5144" width="15.962" height="5.186" rx="0.94" fill="#bd932e"/>
      </g>
      <g id="Group_5595" data-name="Group 5595" transform="translate(0 13.647)">
        <rect id="Rectangle_5145" data-name="Rectangle 5145" width="10.155" height="4.159" rx="1.04" fill="#bd932e"/>
      </g>
      <g id="Group_5596" data-name="Group 5596" transform="translate(0 21.778)">
        <rect id="Rectangle_5146" data-name="Rectangle 5146" width="10.155" height="4.159" rx="1.04" fill="#bd932e"/>
      </g>
      <g id="Group_5597" data-name="Group 5597" transform="translate(10.836 15.131)">
        <rect id="Rectangle_5147" data-name="Rectangle 5147" width="7.577" height="1.094" fill="#3475a6"/>
      </g>
      <g id="Group_5598" data-name="Group 5598" transform="translate(10.836 23.314)">
        <rect id="Rectangle_5148" data-name="Rectangle 5148" width="7.134" height="1.094" fill="#3475a6"/>
      </g>
      <g id="Group_5599" data-name="Group 5599" transform="translate(17.484)">
        <rect id="Rectangle_5149" data-name="Rectangle 5149" width="1.094" height="30.344" transform="translate(0)" fill="#3475a6"/>
      </g>
    </g>
    <g id="Group_5612" data-name="Group 5612" transform="translate(30.42 13.076)">
      <g id="Group_5603" data-name="Group 5603" transform="translate(0 1.096)">
        <g id="Group_5601" data-name="Group 5601">
          <path id="Path_8894" data-name="Path 8894" d="M51.119,27.083l-2.151-.2a8.9,8.9,0,0,0-1.1-2.608l1.364-1.649a.277.277,0,0,0,0-.367l-2.2-2.248a.27.27,0,0,0-.367,0L45,21.38A8.993,8.993,0,0,0,42.4,20.285l-.2-2.136a.262.262,0,0,0-.277-.24H40.26v.547h1.394l.2,2.083a.262.262,0,0,0,.217.232,8.633,8.633,0,0,1,2.788,1.177.285.285,0,0,0,.322,0l1.626-1.356,1.844,1.881-1.341,1.619a.27.27,0,0,0,0,.322,8.243,8.243,0,0,1,1.177,2.78.285.285,0,0,0,.247.217l2.113.2v2.653l-2.083.2a.285.285,0,0,0-.247.217,8.476,8.476,0,0,1-1.177,2.788.27.27,0,0,0,0,.322l1.341,1.611L46.81,37.29l-1.626-1.326a.27.27,0,0,0-.322,0,8.094,8.094,0,0,1-2.788,1.169.27.27,0,0,0-.217.232l-.2,2.083H40.26v.547H41.9a.255.255,0,0,0,.27-.24l.21-2.136a8.686,8.686,0,0,0,2.608-1.094l1.649,1.364a.277.277,0,0,0,.367,0l2.248-2.248a.277.277,0,0,0,0-.367l-1.371-1.656a8.858,8.858,0,0,0,1.1-2.6l2.136-.21a.277.277,0,0,0,.255-.27V27.36a.292.292,0,0,0-.255-.277Z" transform="translate(-40.125 -17.775)" fill="#3475a6"/>
          <path id="Path_8895" data-name="Path 8895" d="M41.864,40.055H40.08v-.817h1.439l.195-1.963a.39.39,0,0,1,.33-.352,7.944,7.944,0,0,0,2.7-1.154.42.42,0,0,1,.487,0l1.5,1.267,1.7-1.7-1.259-1.5a.4.4,0,0,1,0-.487A8.393,8.393,0,0,0,48.331,30.6a.4.4,0,0,1,.36-.315l1.963-.195V27.675l-1.986-.187a.427.427,0,0,1-.367-.315,7.936,7.936,0,0,0-1.162-2.743.4.4,0,0,1,0-.487l1.252-1.5-1.626-1.716-1.5,1.259a.42.42,0,0,1-.487,0,8.288,8.288,0,0,0-2.743-1.154.4.4,0,0,1-.322-.352l-.195-1.933H40.08V17.73h1.776a.4.4,0,0,1,.4.36l.2,2.038a9.083,9.083,0,0,1,2.473,1.042l1.574-1.311a.412.412,0,0,1,.555,0l2.2,2.248a.4.4,0,0,1,0,.547l-1.3,1.581a9.173,9.173,0,0,1,1.049,2.473l2.061.195a.42.42,0,0,1,.375.4V30.47a.412.412,0,0,1-.382.412l-2.038.195a8.716,8.716,0,0,1-1.042,2.466L49.3,35.116a.412.412,0,0,1,0,.555L47.05,37.919a.4.4,0,0,1-.547,0l-1.574-1.3a8.746,8.746,0,0,1-2.473,1.034l-.187,2.016a.4.4,0,0,1-.4.39Zm-1.5-.27h1.5A.127.127,0,0,0,42,39.673h0l.217-2.248h.1a8.521,8.521,0,0,0,2.57-1.079l.082-.052,1.724,1.439a.15.15,0,0,0,.187,0l2.248-2.248a.135.135,0,0,0,0-.18l-1.439-1.731.052-.082a8.9,8.9,0,0,0,1.087-2.563v-.1l2.248-.217a.142.142,0,0,0,.127-.142V27.322a.135.135,0,0,0-.127-.135h0l-2.248-.217v-.1a8.416,8.416,0,0,0-1.087-2.563l-.052-.082L49.118,22.5a.127.127,0,0,0,0-.18l-2.2-2.248a.15.15,0,0,0-.187,0L45,21.507l-.082-.052a8.671,8.671,0,0,0-2.563-1.079h-.1l-.217-2.248a.127.127,0,0,0-.127-.12h-1.5v.277h1.379L42,20.5a.142.142,0,0,0,.1.112,8.334,8.334,0,0,1,2.84,1.192.135.135,0,0,0,.157,0l1.664-1.439L48.8,22.429l-1.416,1.716a.127.127,0,0,0,0,.157,8.3,8.3,0,0,1,1.192,2.833.135.135,0,0,0,.127.1l2.248.217v2.908l-2.248.21a.157.157,0,0,0-.127.1,8.566,8.566,0,0,1-1.2,2.84.135.135,0,0,0,0,.157l1.416,1.709-2.023,2.031L45.049,36a.135.135,0,0,0-.157,0,8.3,8.3,0,0,1-2.833,1.192.12.12,0,0,0-.1.112l-.217,2.211H40.357Z" transform="translate(-40.08 -17.73)" fill="#3475a6"/>
        </g>
        <g id="Group_5602" data-name="Group 5602" transform="translate(0.03 6.034)">
          <path id="Path_8896" data-name="Path 8896" d="M45.311,30.961A5,5,0,0,0,40.32,26h-.06v.427h.06a4.571,4.571,0,0,1,0,9.135h-.06v.427h.06a5.006,5.006,0,0,0,4.991-5.029Z" transform="translate(-40.155 -25.837)" fill="#3475a6"/>
          <path id="Path_8897" data-name="Path 8897" d="M40.285,36.04H40.12V35.35h.142l.052.135V35.35a4.437,4.437,0,1,0,.112-8.866H40.12v-.7h.195a5.133,5.133,0,1,1,.12,10.259h-.12ZM40.285,35.9Zm.082-.285v.15a4.871,4.871,0,0,0,0-9.742v.15a4.706,4.706,0,0,1,0,9.405Z" transform="translate(-40.12 -25.782)" fill="#3475a6"/>
        </g>
      </g>
      <g id="Group_5611" data-name="Group 5611" transform="translate(10.161)">
        <g id="Group_5606" data-name="Group 5606">
          <g id="Group_5604" data-name="Group 5604">
            <path id="Path_8898" data-name="Path 8898" d="M63.728,18.753l-1.027.33a4.309,4.309,0,0,0-1.019-.967l.3-1.027a.15.15,0,0,0-.082-.165l-1.454-.577a.135.135,0,0,0-.165.067l-.487.952a4.4,4.4,0,0,0-1.4,0l-.525-.937a.12.12,0,0,0-.165-.052l-1.446.63a.127.127,0,0,0-.075.157l.33,1.019a4.5,4.5,0,0,0-.974,1.019l-1.027-.292a.127.127,0,0,0-.157.075l-.577,1.5a.135.135,0,0,0,.06.172l.952.48a4.444,4.444,0,0,0,0,1.409l-.944.525a.135.135,0,0,0-.067.172l.63,1.439a.142.142,0,0,0,.172.075l1.019-.337a4.234,4.234,0,0,0,1.027.974l-.3,1.019a.135.135,0,0,0,.082.165l1.5.577a.15.15,0,0,0,.172-.067l.48-.959a4.234,4.234,0,0,0,1.409,0l.517.937a.135.135,0,0,0,.172.052l1.439-.63a.127.127,0,0,0,.075-.165l-.33-1.012a4.339,4.339,0,0,0,.974-1.019l1.027.292a.135.135,0,0,0,.165-.075l.57-1.461a.135.135,0,0,0-.06-.172l-.952-.48a4.444,4.444,0,0,0,0-1.409l.869-.547a.135.135,0,0,0,.06-.172l-.63-1.446a.135.135,0,0,0-.135-.067Zm.5,1.5-.914.51a.142.142,0,0,0-.067.142,4.235,4.235,0,0,1,0,1.5.135.135,0,0,0,.067.135l.937.472-.487,1.229-1-.285a.135.135,0,0,0-.15.06A3.994,3.994,0,0,1,61.578,25.1a.15.15,0,0,0-.052.15l.322.989-1.162.547-.51-.907a.127.127,0,0,0-.142-.067,4.234,4.234,0,0,1-1.5,0,.127.127,0,0,0-.142.067l-.465.937-1.237-.487.247-.982a.142.142,0,0,0-.06-.15,3.964,3.964,0,0,1-1.087-1.034.142.142,0,0,0-.157-.045l-1,.322-.525-1.214.914-.51a.142.142,0,0,0,.075-.142,4.069,4.069,0,0,1,0-1.5.142.142,0,0,0-.075-.142l-.937-.472.487-1.229,1,.285a.15.15,0,0,0,.15-.052,4.107,4.107,0,0,1,1.019-1.132.112.112,0,0,0,.052-.142l-.322-1L57.7,16.67l.5.914a.142.142,0,0,0,.142.067,4.242,4.242,0,0,1,1.5,0,.135.135,0,0,0,.142-.067l.472-.937,1.214.487-.285,1a.142.142,0,0,0,.052.15,4.227,4.227,0,0,1,1.094,1.034.142.142,0,0,0,.157.052l1-.292Z" transform="translate(-53.67 -16.286)" fill="#bd932e"/>
            <path id="Path_8899" data-name="Path 8899" d="M57.911,27.2h-.075l-1.5-.57a.2.2,0,0,1-.127-.247l.285-.982a4.5,4.5,0,0,1-.967-.914l-.974.315a.2.2,0,0,1-.255-.1l-.637-1.439a.217.217,0,0,1,.1-.262l.9-.5a4.684,4.684,0,0,1,0-1.334l-.907-.457a.2.2,0,0,1-.1-.255l.577-1.461a.2.2,0,0,1,.247-.12l.974.285a4.346,4.346,0,0,1,.922-.967l-.315-.974a.2.2,0,0,1,.112-.24l1.484-.644a.2.2,0,0,1,.255.082l.495.892a4.2,4.2,0,0,1,1.334,0l.457-.914a.2.2,0,0,1,.262-.1l1.446.577a.2.2,0,0,1,.12.24l-.285.982a4.5,4.5,0,0,1,.974.914l.974-.315a.217.217,0,0,1,.255.1l.63,1.446a.21.21,0,0,1-.1.262l-.884.495a4.684,4.684,0,0,1,0,1.334l.907.457a.2.2,0,0,1,.1.255L64.019,24.5a.2.2,0,0,1-.24.12l-.982-.307a4.347,4.347,0,0,1-.922.967l.315.967a.2.2,0,0,1-.112.247l-1.424.637a.2.2,0,0,1-.255-.082l-.495-.892a4.422,4.422,0,0,1-1.334,0l-.457.914a.21.21,0,0,1-.2.127Zm-2.293-2.885v.045a4.189,4.189,0,0,0,1,.952h.037l-.307,1.072a.075.075,0,0,0,.037.082l1.461.57a.075.075,0,0,0,.082,0l.51-1h.045a4.3,4.3,0,0,0,1.386,0h.052l.54.974a.06.06,0,0,0,.082,0L62,26.372a.06.06,0,0,0,0-.075l-.345-1.064h0a4.294,4.294,0,0,0,.952-1v-.045l1.072.315a.075.075,0,0,0,.082-.045L64.334,23a.06.06,0,0,0,0-.082l-1-.5V22.37a4.5,4.5,0,0,0,0-1.386v-.052l.974-.54a.067.067,0,0,0,0-.09l-.63-1.439a.06.06,0,0,0-.082,0l-1.072.345V19.17a4.174,4.174,0,0,0-1-.952h-.045l.315-1.072a.075.075,0,0,0-.045-.082L60.3,16.487a.067.067,0,0,0-.082,0l-.51,1h.045a4.3,4.3,0,0,0-1.386,0h-.045l-.547-.974a.06.06,0,0,0-.082,0l-1.439.622a.067.067,0,0,0-.037.082l.345,1.057h0a4.212,4.212,0,0,0-.959,1v.037l-1.072-.307a.067.067,0,0,0-.082.037l-.577,1.461a.06.06,0,0,0,0,.082l1,.5v.052a4.107,4.107,0,0,0,0,1.386v.045l-.989.547a.075.075,0,0,0,0,.09l.622,1.439a.082.082,0,0,0,.09.037Zm2.248,2.6-1.341-.525.307-1.064a.075.075,0,0,0,0-.075A4.107,4.107,0,0,1,55.723,24.2a.075.075,0,0,0-.082,0l-1.057.352L54,23.216l.982-.54a.067.067,0,0,0,0-.067,4.369,4.369,0,0,1,0-1.5.067.067,0,0,0-.037-.075l-.982-.495.532-1.349,1.057.307a.067.067,0,0,0,.075,0,4.287,4.287,0,0,1,1.049-1.184.052.052,0,0,0,0-.067l-.345-1.057,1.334-.577.57.952a.067.067,0,0,0,.067,0,4.407,4.407,0,0,1,1.5,0,.052.052,0,1,0,.1,0l.495-.989,1.341.54L61.4,18.135a.06.06,0,0,0,0,.075,4.129,4.129,0,0,1,1.109,1.057.06.06,0,0,0,.075,0l1.064-.345.577,1.326-.959.54a.075.075,0,0,0,0,.067,4.234,4.234,0,0,1,0,1.5.09.09,0,0,0,0,.067l.989.495-.465,1.394L62.73,24a.052.052,0,0,0-.067,0,4.347,4.347,0,0,1-1.057,1.1.06.06,0,0,0,0,.075l.345,1.049-1.334.577-.54-.967a.06.06,0,0,0-.067,0,4.077,4.077,0,0,1-1.536,0,.09.09,0,0,0-.067.037ZM56.69,26.3l1.109.435.442-.877a.232.232,0,0,1,.217-.112,3.912,3.912,0,0,0,1.5,0,.21.21,0,0,1,.225.1l.472.832,1.1-.48-.3-.929a.2.2,0,0,1,.075-.225,3.964,3.964,0,0,0,1.019-1.072.217.217,0,0,1,.232-.09l.944.277.435-1.117-.877-.442a.21.21,0,0,1-.1-.217,4.077,4.077,0,0,0,0-1.5.2.2,0,0,1,.1-.217l.854-.48-.487-1.079-.944.307a.21.21,0,0,1-.232-.067A3.964,3.964,0,0,0,61.4,18.315a.217.217,0,0,1-.09-.232l.277-.944-1.1-.435-.465.862a.21.21,0,0,1-.217.1,4.077,4.077,0,0,0-1.5,0,.2.2,0,0,1-.217-.1l-.435-.8-1.1.48.3.929a.187.187,0,0,1-.075.225,3.964,3.964,0,0,0-1.019,1.072.2.2,0,0,1-.232.082l-.937-.27L54.149,20.4l.877.45a.2.2,0,0,1,.1.21,4.114,4.114,0,0,0,0,1.5.2.2,0,0,1-.1.217l-.869.48.5,1.057L55.6,24a.217.217,0,0,1,.232.075,4.077,4.077,0,0,0,1.072,1.049.2.2,0,0,1,.09.225Z" transform="translate(-53.638 -16.268)" fill="#bd932e"/>
          </g>
          <g id="Group_5605" data-name="Group 5605" transform="translate(2.264 2.204)">
            <path id="Path_8900" data-name="Path 8900" d="M58.632,19.57a3.185,3.185,0,1,0,4.2,1.641A3.185,3.185,0,0,0,58.632,19.57Zm2.436,5.583a2.908,2.908,0,1,1,1.5-3.829,2.908,2.908,0,0,1-1.5,3.829Z" transform="translate(-56.676 -19.232)" fill="#bd932e"/>
            <path id="Path_8901" data-name="Path 8901" d="M59.912,25.715a3.252,3.252,0,1,1,1.3-.27A3.192,3.192,0,0,1,59.912,25.715Zm0-6.362a3.215,3.215,0,0,0-1.244.255h0a3.118,3.118,0,1,0,1.244-.255Zm0,6.093a3.05,3.05,0,0,1-1.094-.21A3,3,0,1,1,61.1,25.19h0A3,3,0,0,1,59.912,25.445Zm0-5.823a2.84,2.84,0,1,0,0,5.681,3,3,0,0,0,1.109-.255h0a2.855,2.855,0,0,0,1.5-3.747,2.885,2.885,0,0,0-1.574-1.5,2.915,2.915,0,0,0-1.034-.18Z" transform="translate(-56.659 -19.209)" fill="#bd932e"/>
          </g>
        </g>
        <g id="Group_5610" data-name="Group 5610" transform="translate(3.537 3.926)">
          <g id="Group_5607" data-name="Group 5607" transform="translate(0 0.463)">
            <path id="Path_8902" data-name="Path 8902" d="M59.828,22.166a.135.135,0,0,0-.195,0h0L58.4,23.1a.142.142,0,0,0,0,.195h0l1.237.937a.135.135,0,1,0,.187-.195h0l-1.094-.824,1.094-.824a.142.142,0,0,0,0-.195Z" transform="translate(-58.359 -22.125)" fill="#bd932e"/>
          </g>
          <g id="Group_5608" data-name="Group 5608" transform="translate(2.405 0.441)">
            <path id="Path_8903" data-name="Path 8903" d="M63.046,23.066l-1.237-.929a.127.127,0,0,0-.187,0,.135.135,0,0,0,0,.187h0l1.094.832-1.094.824a.136.136,0,0,0,.165.217h0l1.237-.929a.142.142,0,0,0,0-.195h0Z" transform="translate(-61.568 -22.095)" fill="#bd932e"/>
          </g>
          <g id="Group_5609" data-name="Group 5609" transform="translate(1.61)">
            <path id="Path_8904" data-name="Path 8904" d="M61.086,21.509a.127.127,0,0,0-.15.112h0l-.427,2.788a.135.135,0,0,0,.112.157h0a.127.127,0,0,0,.135-.112l.427-2.8A.135.135,0,0,0,61.086,21.509Z" transform="translate(-60.507 -21.507)" fill="#bd932e"/>
          </g>
        </g>
      </g>
    </g>
  </g>
</svg>
