<?xml version="1.0" encoding="UTF-8"?>
<!DOCTYPE svg PUBLIC "-//W3C//DTD SVG 1.1//EN" "http://www.w3.org/Graphics/SVG/1.1/DTD/svg11.dtd">
<svg xmlns="http://www.w3.org/2000/svg" version="1.1" width="595px" height="138px" style="shape-rendering:geometricPrecision; text-rendering:geometricPrecision; image-rendering:optimizeQuality; fill-rule:evenodd; clip-rule:evenodd" xmlns:xlink="http://www.w3.org/1999/xlink">
<g><path style="opacity:0.885" fill="#103452" d="M -0.5,-0.5 C 15.8333,-0.5 32.1667,-0.5 48.5,-0.5C 48.5,14.1667 48.5,28.8333 48.5,43.5C 59.8333,43.5 71.1667,43.5 82.5,43.5C 82.3334,29.496 82.5001,15.496 83,1.5C 83.7172,0.955796 84.2172,0.28913 84.5,-0.5C 85.8333,-0.5 87.1667,-0.5 88.5,-0.5C 89.4687,0.309426 90.3021,1.30943 91,2.5C 91.4999,19.1633 91.6666,35.83 91.5,52.5C 74.1667,52.5 56.8333,52.5 39.5,52.5C 39.5,37.8333 39.5,23.1667 39.5,8.5C 29.1667,8.5 18.8333,8.5 8.5,8.5C 8.66665,42.5016 8.49998,76.5016 8,110.5C 7.42414,112.852 5.92414,113.852 3.5,113.5C 1.88565,113.197 0.552317,112.53 -0.5,111.5C -0.5,74.1667 -0.5,36.8333 -0.5,-0.5 Z"/></g>
<g><path style="opacity:0.91" fill="#103452" d="M 131.5,137.5 C 115.167,137.5 98.8333,137.5 82.5,137.5C 82.5,122.833 82.5,108.167 82.5,93.5C 71.1667,93.5 59.8333,93.5 48.5,93.5C 48.6666,107.504 48.4999,121.504 48,135.5C 47.2828,136.044 46.7828,136.711 46.5,137.5C 45.1667,137.5 43.8333,137.5 42.5,137.5C 41.5313,136.691 40.6979,135.691 40,134.5C 39.5001,117.837 39.3334,101.17 39.5,84.5C 56.8333,84.5 74.1667,84.5 91.5,84.5C 91.5,99.1667 91.5,113.833 91.5,128.5C 102.167,128.5 112.833,128.5 123.5,128.5C 123.333,93.8317 123.5,59.1651 124,24.5C 126.333,23.1667 128.667,23.1667 131,24.5C 131.5,62.1652 131.667,99.8319 131.5,137.5 Z"/></g>
<g><path style="opacity:0.827" fill="#103452" d="M 368.5,36.5 C 374.264,36.8596 375.931,39.6929 373.5,45C 366.909,47.2438 364.409,45.0771 366,38.5C 366.995,37.9341 367.828,37.2674 368.5,36.5 Z"/></g>
<g><path style="opacity:0.905" fill="#103452" d="M 167.5,40.5 C 170.167,40.5 172.833,40.5 175.5,40.5C 175.5,47.1667 175.5,53.8333 175.5,60.5C 183.833,60.5 192.167,60.5 200.5,60.5C 200.5,53.8333 200.5,47.1667 200.5,40.5C 202.833,40.5 205.167,40.5 207.5,40.5C 207.5,56.1667 207.5,71.8333 207.5,87.5C 205.167,87.5 202.833,87.5 200.5,87.5C 200.5,80.5 200.5,73.5 200.5,66.5C 192.167,66.5 183.833,66.5 175.5,66.5C 175.5,73.5 175.5,80.5 175.5,87.5C 172.833,87.5 170.167,87.5 167.5,87.5C 167.5,71.8333 167.5,56.1667 167.5,40.5 Z"/></g>
<g><path style="opacity:0.854" fill="#103452" d="M 470.5,40.5 C 479.173,40.3336 487.84,40.5002 496.5,41C 512.925,46.0114 518.758,56.8447 514,73.5C 509.93,82.1228 503.097,86.6228 493.5,87C 485.841,87.4997 478.174,87.6664 470.5,87.5C 470.5,71.8333 470.5,56.1667 470.5,40.5 Z M 478.5,47.5 C 484.176,47.3339 489.843,47.5006 495.5,48C 507.326,52.4927 510.826,60.6594 506,72.5C 503.072,76.381 499.239,78.881 494.5,80C 489.177,80.4994 483.844,80.666 478.5,80.5C 478.5,69.5 478.5,58.5 478.5,47.5 Z"/></g>
<g><path style="opacity:0.85" fill="#103452" d="M 213.5,51.5 C 216.247,51.1866 218.914,51.52 221.5,52.5C 224.857,61.0794 228.69,69.4127 233,77.5C 236.5,69.1667 240,60.8333 243.5,52.5C 246.106,51.3483 248.773,51.1816 251.5,52C 245.337,65.8161 239.171,79.6495 233,93.5C 227.838,100.415 221.338,101.915 213.5,98C 212.241,95.328 212.908,93.1614 215.5,91.5C 222.009,95.3647 226.342,93.698 228.5,86.5C 223.212,74.928 218.212,63.2613 213.5,51.5 Z"/></g>
<g><path style="opacity:0.855" fill="#103452" d="M 255.5,51.5 C 257.833,51.5 260.167,51.5 262.5,51.5C 262.008,56.2078 263.341,56.7078 266.5,53C 285.312,48.8123 293.812,56.3123 292,75.5C 287.933,84.952 280.767,88.7853 270.5,87C 267.966,86.4837 265.8,85.317 264,83.5C 263.501,88.8229 263.334,94.1563 263.5,99.5C 260.833,99.5 258.167,99.5 255.5,99.5C 255.5,83.5 255.5,67.5 255.5,51.5 Z M 272.5,57.5 C 284.355,59.239 287.855,65.5723 283,76.5C 279.257,80.2594 274.757,81.4261 269.5,80C 266.619,78.7494 264.786,76.5827 264,73.5C 261.896,65.3687 264.729,60.0353 272.5,57.5 Z"/></g>
<g><path style="opacity:0.874" fill="#103452" d="M 309.5,51.5 C 324.648,49.6512 332.314,56.3179 332.5,71.5C 323.143,71.1684 313.81,71.5017 304.5,72.5C 307.928,79.8774 313.594,82.3774 321.5,80C 323.286,79.2155 324.786,78.0488 326,76.5C 327.685,78.0175 329.185,79.6841 330.5,81.5C 322.207,88.4816 313.207,89.3149 303.5,84C 297.836,77.9407 296.002,70.7741 298,62.5C 300.437,57.2262 304.271,53.5595 309.5,51.5 Z M 312.5,57.5 C 319.097,56.9379 323.43,59.7712 325.5,66C 318.476,66.8311 311.476,66.6644 304.5,65.5C 306.242,61.7581 308.908,59.0914 312.5,57.5 Z"/></g>
<g><path style="opacity:0.895" fill="#103452" d="M 340.5,51.5 C 342.833,51.5 345.167,51.5 347.5,51.5C 347.281,52.675 347.614,53.675 348.5,54.5C 351.757,52.1207 355.424,51.1207 359.5,51.5C 359.5,53.8333 359.5,56.1667 359.5,58.5C 355.197,57.7962 351.697,59.1295 349,62.5C 347.594,70.7492 347.094,79.0826 347.5,87.5C 345.167,87.5 342.833,87.5 340.5,87.5C 340.5,75.5 340.5,63.5 340.5,51.5 Z"/></g>
<g><path style="opacity:0.897" fill="#103452" d="M 366.5,51.5 C 368.833,51.5 371.167,51.5 373.5,51.5C 373.5,63.5 373.5,75.5 373.5,87.5C 371.167,87.5 368.833,87.5 366.5,87.5C 366.5,75.5 366.5,63.5 366.5,51.5 Z"/></g>
<g><path style="opacity:0.866" fill="#103452" d="M 393.5,51.5 C 411.923,50.0862 419.757,58.4195 417,76.5C 411.185,86.5526 402.685,89.7192 391.5,86C 381.597,80.0483 378.763,71.5483 383,60.5C 385.468,56.1987 388.968,53.1987 393.5,51.5 Z M 397.5,57.5 C 407.639,58.0956 411.806,63.429 410,73.5C 407.27,80.053 402.437,82.2196 395.5,80C 388.885,76.1566 387.052,70.6566 390,63.5C 392.109,60.8782 394.609,58.8782 397.5,57.5 Z"/></g>
<g><path style="opacity:0.878" fill="#103452" d="M 425.5,51.5 C 427.833,51.5 430.167,51.5 432.5,51.5C 432.343,52.8734 432.51,54.2068 433,55.5C 436.175,52.3317 440.008,50.9984 444.5,51.5C 452.036,51.0114 456.869,54.3447 459,61.5C 459.5,70.1603 459.666,78.8269 459.5,87.5C 457.167,87.5 454.833,87.5 452.5,87.5C 452.666,80.1591 452.5,72.8258 452,65.5C 448.958,57.9292 443.791,56.0959 436.5,60C 435.299,60.9025 434.465,62.0692 434,63.5C 432.637,71.4295 432.137,79.4295 432.5,87.5C 430.167,87.5 427.833,87.5 425.5,87.5C 425.5,75.5 425.5,63.5 425.5,51.5 Z"/></g>
<g><path style="opacity:0.877" fill="#103452" d="M 532.5,51.5 C 547.696,49.7041 555.363,56.3707 555.5,71.5C 546.161,71.3335 536.827,71.5002 527.5,72C 530.682,79.7561 536.348,82.4228 544.5,80C 546.333,78.8333 548.167,77.6667 550,76.5C 553.258,78.7366 553.758,81.2366 551.5,84C 544.008,88.2489 536.342,88.5823 528.5,85C 519.691,77.114 518.191,67.9473 524,57.5C 526.671,55.0976 529.505,53.0976 532.5,51.5 Z M 535.5,57.5 C 541.856,56.8518 546.189,59.5185 548.5,65.5C 541.524,66.6644 534.524,66.8311 527.5,66C 529.021,61.9823 531.687,59.149 535.5,57.5 Z"/></g>
<g><path style="opacity:0.843" fill="#103452" d="M 594.5,51.5 C 594.5,52.1667 594.5,52.8333 594.5,53.5C 589.275,64.2907 584.275,75.2907 579.5,86.5C 576.833,87.8333 574.167,87.8333 571.5,86.5C 566.5,75.1667 561.5,63.8333 556.5,52.5C 559.167,51.1667 561.833,51.1667 564.5,52.5C 568.244,60.9102 572.077,69.2435 576,77.5C 579.392,69.0493 583.059,60.716 587,52.5C 589.381,51.565 591.881,51.2317 594.5,51.5 Z"/></g>
</svg>
