<svg xmlns="http://www.w3.org/2000/svg" width="57.834" height="55.659" viewBox="0 0 57.834 55.659">
  <g id="data-science-bootcamp-logo" transform="translate(-1.5 -1.496)">
    <ellipse id="Ellipse_162" cx="28.917" cy="4.507" rx="28.917" ry="4.507" transform="translate(1.5 48.141)" fill="#e0e0e0" style="mix-blend-mode: multiply;isolation: isolate"/>
    <g id="Group_5671" transform="translate(4.683 1.496)">
      <g id="Group_5488" transform="translate(0 0)">
        <g id="Group_1703_1_" transform="translate(21.323 7.374)">
          <g id="Rectangle_1055_1_" transform="translate(0 0)">
            <path id="Path_324" d="M.3,1.1H6.684l-.6.976H.3Z" transform="translate(-0.3 -1.1)" fill="#3475a6"/>
          </g>
        </g>
        <g id="Group_1704_1_" transform="translate(21.323 15.718)">
          <g id="Rectangle_1056_1_" transform="translate(0 0)">
            <path id="Path_325" d="M.3.5H5.257l1.127.976H.3Z" transform="translate(-0.3 -0.5)" fill="#3475a6"/>
          </g>
        </g>
        <g id="Group_1705_1_" transform="translate(21.323 12.326)">
          <g id="Rectangle_1057_1_" transform="translate(0 0)">
            <rect id="Rectangle_147" width="4.206" height="0.976" fill="#3475a6"/>
          </g>
        </g>
        <g id="Group_1706_1_" transform="translate(25.07 6.056)">
          <g id="Path_3611_1_" transform="translate(0 0)">
            <path id="Path_326" d="M6.322,13.756c-.376,0-.751-.075-1.127-.075a1.037,1.037,0,0,1-.3-.225l-.3-1.2c-.15-.075-.3-.075-.451-.15l-1.052.6a.335.335,0,0,1-.376,0,7.847,7.847,0,0,1-1.577-1.577.335.335,0,0,1,0-.376L1.74,9.7a1.068,1.068,0,0,1-.15-.451l-1.2-.3c-.15,0-.225-.15-.225-.3a5.32,5.32,0,0,1,0-2.178.413.413,0,0,1,.225-.376l1.127-.3c.075-.15.075-.3.15-.451L1.139,4.292a.335.335,0,0,1,0-.376A7.847,7.847,0,0,1,2.716,2.339a.335.335,0,0,1,.376,0l1.052.6a1.068,1.068,0,0,1,.451-.15l.3-1.2c0-.15.15-.225.3-.225a5.32,5.32,0,0,1,2.178,0,1.037,1.037,0,0,1,.3.225l.3,1.2c.15.075.3.075.451.15l1.052-.6a.335.335,0,0,1,.376,0,7.847,7.847,0,0,1,1.577,1.577.335.335,0,0,1,0,.376l-.526.976a1.068,1.068,0,0,1,.15.451l1.2.3c.15,0,.225.15.225.3a5.32,5.32,0,0,1,0,2.178,1.037,1.037,0,0,1-.225.3l-1.2.3c-.075.15-.075.3-.15.451l.6,1.052a.335.335,0,0,1,0,.376,7.847,7.847,0,0,1-1.577,1.577.335.335,0,0,1-.376,0l-1.052-.6a1.068,1.068,0,0,1-.451.15l-.3,1.2c0,.15-.15.225-.3.225A1.48,1.48,0,0,1,6.322,13.756ZM5.57,13a5.035,5.035,0,0,0,1.5,0l.3-1.127.225-.225a2.668,2.668,0,0,0,.676-.3.341.341,0,0,1,.376,0l1.052.6A6.96,6.96,0,0,0,10.753,10.9l-.6-1.052a.341.341,0,0,1,0-.376,4.742,4.742,0,0,1,.3-.676l.225-.225,1.127-.3a5.035,5.035,0,0,0,0-1.5l-1.127-.3a1.037,1.037,0,0,1-.225-.3,2.668,2.668,0,0,0-.3-.676.341.341,0,0,1,0-.376l.6-1.052A6.96,6.96,0,0,0,9.7,3.015l-1.052.6a.341.341,0,0,1-.376,0c-.225-.075-.451-.225-.676-.3L7.373,3.09l-.3-1.127a5.035,5.035,0,0,0-1.5,0L5.195,3.09q0,.113-.225.225c-.225.075-.451.225-.676.3a.341.341,0,0,1-.376,0l-.976-.6A4.653,4.653,0,0,0,1.89,4.067l.6,1.052a.341.341,0,0,1,0,.376c-.15.225-.225.451-.376.676a.24.24,0,0,1-.225.225L.764,6.7V8.2l1.127.376.225.225a2.668,2.668,0,0,0,.3.676.341.341,0,0,1,0,.376l-.6,1.052a6.96,6.96,0,0,0,1.052,1.052l1.052-.6a.341.341,0,0,1,.376,0c.225.075.451.225.676.3.075.075.225.15.225.3Zm.751-2.929A2.6,2.6,0,0,1,3.693,7.522h0A2.6,2.6,0,0,1,6.246,4.893h0A2.713,2.713,0,0,1,8.875,7.522,2.632,2.632,0,0,1,6.322,10.075Zm0-4.507A1.878,1.878,0,1,0,8.2,7.522V7.446h0A1.859,1.859,0,0,0,6.322,5.569Z" transform="translate(-0.05 -1.25)" fill="#bd932e"/>
          </g>
        </g>
        <g id="Group_1707_1_" transform="translate(20.529 23.787)">
          <g id="Rectangle_1058_1_" transform="translate(0)">
            <rect id="Rectangle_148" width="17.425" height="0.976" fill="#3475a6"/>
          </g>
        </g>
        <g id="Group_1708_1_" transform="translate(40.285 27.513)">
          <g id="Path_3613_1_" transform="translate(0 0)">
            <path id="Path_327" d="M3.287,8.494a3.081,3.081,0,0,1-.826-.075c-.15-.075-.225-.15-.225-.3l-.225-.676c0-.075-.15-.075-.15-.15l-.6.376a.335.335,0,0,1-.376,0,2.733,2.733,0,0,1-1.2-1.052.335.335,0,0,1,0-.376l.376-.676V5.339l-.751-.15c-.15,0-.225-.15-.225-.3a5.549,5.549,0,0,1,0-1.577,1.037,1.037,0,0,1,.225-.3l.751-.15a.233.233,0,0,0,.075-.15l-.376-.676a.335.335,0,0,1,0-.376A4.023,4.023,0,0,1,.884.532a.335.335,0,0,1,.376,0l.676.376c0-.075.075-.075.15-.15l.15-.751c0-.15.15-.225.3-.225a5.549,5.549,0,0,1,1.577,0,1.037,1.037,0,0,1,.3.225l.15.751a.233.233,0,0,0,.15.075L5.39.457a.335.335,0,0,1,.376,0A4.023,4.023,0,0,1,6.893,1.584a.335.335,0,0,1,0,.376l-.3.676a.233.233,0,0,1,.075.15l.751.15c.15,0,.225.15.225.3a5.549,5.549,0,0,1,0,1.577,1.037,1.037,0,0,1-.225.3l-.826.225a.276.276,0,0,0-.075.225l.376.676a.335.335,0,0,1,0,.376A4.023,4.023,0,0,1,5.766,7.743a.335.335,0,0,1-.376,0l-.6-.451c-.075.075-.15.075-.225.15l-.15.751c0,.15-.15.225-.3.225A1.623,1.623,0,0,1,3.287,8.494Zm-.376-.751a1.831,1.831,0,0,0,.9,0l.15-.676.225-.225a1.068,1.068,0,0,0,.451-.15.335.335,0,0,1,.376,0l.6.376a4.532,4.532,0,0,0,.6-.6L5.841,5.79a.335.335,0,0,1,0-.376,1.223,1.223,0,0,0,.225-.451l.225-.225.676-.15a1.831,1.831,0,0,0,0-.9l-.676-.15q-.225-.113-.225-.225l-.225-.451a.341.341,0,0,1,0-.376l.376-.6a2.286,2.286,0,0,0-.6-.6l-.6.376a.341.341,0,0,1-.376,0c-.15-.15-.3-.15-.451-.225a.24.24,0,0,1-.225-.225l-.225-.6a1.831,1.831,0,0,0-.9,0l-.15.676q0,.113-.225.225a1.068,1.068,0,0,0-.451.15.341.341,0,0,1-.376,0l-.6-.376a4.532,4.532,0,0,0-.6.6l.376.6a.341.341,0,0,1,0,.376,3.662,3.662,0,0,0-.225.526q0,.113-.225.225l-.676.15a1.831,1.831,0,0,0,0,.9l.676.15q.225.113.225.225l.225.451a.341.341,0,0,1,0,.376l-.376.6a2.286,2.286,0,0,0,.6.6l.6-.376h.376a1.068,1.068,0,0,0,.451.15l.225.225Zm.376-1.8A1.924,1.924,0,0,1,1.335,4.063,1.859,1.859,0,0,1,3.212,2.185,1.859,1.859,0,0,1,5.09,4.063a1.754,1.754,0,0,1-1.8,1.878Zm0-3A1.155,1.155,0,0,0,2.161,4.063h0A1.045,1.045,0,0,0,3.212,5.189h0A1.155,1.155,0,0,0,4.339,4.063h0a.989.989,0,0,0-.976-1.127Z" transform="translate(0.975 0.275)" fill="#bd932e"/>
          </g>
        </g>
        <g id="Group_1709_1_" transform="translate(20.902 18.478)">
          <g id="Path_3614_1_" transform="translate(0 0)">
            <path id="Path_328" d="M17.2,3.93H7.285L4.506,1.376H.3V.4H4.957L7.736,3.029h9.539Z" transform="translate(-0.3 -0.4)" fill="#3475a6"/>
          </g>
        </g>
        <g id="Group_1710_1_" transform="translate(20.529 29.331)">
          <g id="Rectangle_1059_1_" transform="translate(0 0)">
            <rect id="Rectangle_149" width="4.657" height="0.976" fill="#3475a6"/>
          </g>
        </g>
        <g id="Group_1711_1_" transform="translate(20.529 32.741)">
          <g id="Rectangle_1060_1_" transform="translate(0 0)">
            <rect id="Rectangle_150" width="3.53" height="0.976" fill="#3475a6"/>
          </g>
        </g>
        <g id="Group_1712_1_" transform="translate(20.529 35.964)">
          <g id="Rectangle_1061_1_" transform="translate(0 0)">
            <rect id="Rectangle_151" width="5.333" height="0.976" fill="#3475a6"/>
          </g>
        </g>
        <g id="Group_1713_1_" transform="translate(23.516 26.028)">
          <g id="Path_3616_1_" transform="translate(0 0)">
            <path id="Path_329" d="M8,15.435c-.451,0-.976-.075-1.427-.075a1.037,1.037,0,0,1-.3-.225L5.9,13.557c-.15-.075-.451-.15-.6-.225l-1.5.826a.335.335,0,0,1-.376,0,8.038,8.038,0,0,1-1.953-1.953.335.335,0,0,1,0-.376L2.291,10.4a5.175,5.175,0,0,0-.225-.6L.488,9.426c-.15,0-.225-.15-.225-.3a8.168,8.168,0,0,1,0-2.7c0-.3.075-.376.225-.451L2.065,5.6c.075-.15.15-.451.225-.6l-.9-1.5a.335.335,0,0,1,0-.376A8.038,8.038,0,0,1,3.342,1.164a.335.335,0,0,1,.376,0l1.427.826a5.175,5.175,0,0,0,.6-.225L6.121.188a.649.649,0,0,1,.451-.225,8.168,8.168,0,0,1,2.7,0,1.037,1.037,0,0,1,.3.225l.376,1.577c.15.075.451.15.6.225l1.5-.826a.335.335,0,0,1,.376,0,8.038,8.038,0,0,1,1.953,1.953.335.335,0,0,1,0,.376L13.557,4.92a5.175,5.175,0,0,0,.225.6l1.577.451c.15,0,.225.15.225.3a8.168,8.168,0,0,1,0,2.7,1.037,1.037,0,0,1-.225.3l-1.5.451c-.075.15-.15.451-.225.6l.826,1.427a.335.335,0,0,1,0,.376,8.038,8.038,0,0,1-1.953,1.953.335.335,0,0,1-.376,0L10.7,13.257a5.175,5.175,0,0,0-.6.225L9.726,15.06c0,.15-.15.225-.3.225A13.242,13.242,0,0,1,8,15.435Zm-1.052-.9a9.154,9.154,0,0,0,2.028,0l.376-1.5.225-.225a4.594,4.594,0,0,0,.9-.376.341.341,0,0,1,.376,0l1.352.751a8.548,8.548,0,0,0,1.427-1.427L12.806,10.4a.341.341,0,0,1,0-.376,4.594,4.594,0,0,0,.376-.9l.225-.225,1.5-.376a9.154,9.154,0,0,0,0-2.028l-1.352-.526-.225-.225a4.594,4.594,0,0,0-.376-.9.341.341,0,0,1,0-.376l.751-1.352A8.548,8.548,0,0,0,12.28,1.69l-1.352.751a.341.341,0,0,1-.376,0,4.594,4.594,0,0,0-.9-.376L9.426,1.84,9.05.338a9.154,9.154,0,0,0-2.028,0l-.376,1.5a.441.441,0,0,0-.376.15,1.713,1.713,0,0,0-.9.451.341.341,0,0,1-.376,0L3.643,1.69a6.778,6.778,0,0,0-1.5,1.427l.751,1.352a.341.341,0,0,1,0,.376l-.451.9a.2.2,0,0,1-.225.225l-1.5.376a9.154,9.154,0,0,0,0,2.028l1.5.376.225.225a4.594,4.594,0,0,0,.376.9.341.341,0,0,1,0,.376L2.065,11.6a8.548,8.548,0,0,0,1.427,1.427l1.352-.751a.341.341,0,0,1,.376,0,4.594,4.594,0,0,0,.9.376l.225.225ZM8,10.7a3.155,3.155,0,1,1,3.155-3.155A3.224,3.224,0,0,1,8,10.7ZM8,5.07a2.437,2.437,0,0,0-2.479,2.4h0a2.373,2.373,0,0,0,2.4,2.4H8a2.437,2.437,0,0,0,2.479-2.4h0A2.485,2.485,0,0,0,8,5.07Z" transform="translate(-0.15 0.15)" fill="#bd932e"/>
          </g>
        </g>
        <g id="Group_1714_1_" transform="translate(36.014 12.518)">
          <g id="Path_3618_1_" transform="translate(0 0)">
            <path id="Path_330" d="M6.473,14.983c-.376,0-.826-.075-1.2-.075a1.037,1.037,0,0,1-.3-.225l-.376-1.352a3.662,3.662,0,0,1-.526-.225l-1.2.676a.335.335,0,0,1-.376,0,10.237,10.237,0,0,1-1.8-1.8.335.335,0,0,1,0-.376l.676-1.2c-.075-.15-.15-.376-.225-.526L-.212,9.5c-.15,0-.225-.15-.225-.3a6.872,6.872,0,0,1,0-2.479,1.037,1.037,0,0,1,.225-.3L1.14,6.045a.544.544,0,0,1,.15-.6L.539,4.167V3.792a10.237,10.237,0,0,1,1.8-1.8.335.335,0,0,1,.376,0l1.2.676a5.175,5.175,0,0,0,.6-.225L4.9,1.088c0-.15.15-.225.3-.225a6.872,6.872,0,0,1,2.479,0,1.037,1.037,0,0,1,.3.225L8.425,2.44a3.662,3.662,0,0,1,.526.225l1.2-.676a.335.335,0,0,1,.376,0,10.237,10.237,0,0,1,1.8,1.8.335.335,0,0,1,0,.376l-.676,1.277c.075.15.15.376.225.526l1.352.376c.15,0,.225.15.225.3a6.872,6.872,0,0,1,0,2.479,1.037,1.037,0,0,1-.225.3L11.881,9.8a3.662,3.662,0,0,1-.225.526l.676,1.2a.335.335,0,0,1,0,.376,10.237,10.237,0,0,1-1.8,1.8.335.335,0,0,1-.376,0l-1.2-.676c-.15.075-.376.15-.526.225L8.05,14.608c0,.15-.15.225-.3.225A4.171,4.171,0,0,1,6.473,14.983ZM5.5,14.232a7.239,7.239,0,0,0,1.8,0l.376-1.352.225-.225a2.776,2.776,0,0,0,.826-.376.341.341,0,0,1,.376,0l1.2.676a6.069,6.069,0,0,0,1.2-1.2l-.676-1.2a.341.341,0,0,1,0-.376c.15-.3.225-.526.376-.826l.225-.225,1.352-.376a7.239,7.239,0,0,0,0-1.8L11.43,6.571,11.2,6.346a2.777,2.777,0,0,0-.376-.826.341.341,0,0,1,0-.376l.676-1.2a6.069,6.069,0,0,0-1.2-1.2l-1.2.676a.341.341,0,0,1-.376,0c-.3-.15-.526-.225-.826-.376l-.225-.225-.3-1.352a7.239,7.239,0,0,0-1.8,0L5.2,2.815l-.225.225a2.777,2.777,0,0,0-.826.376.341.341,0,0,1-.376,0l-1.2-.676a6.069,6.069,0,0,0-1.2,1.2l.676,1.2a.341.341,0,0,1,0,.376,2.777,2.777,0,0,0-.376.826l-.225.225L.088,6.946a7.239,7.239,0,0,0,0,1.8l1.352.376.225.225a2.777,2.777,0,0,0,.376.826.341.341,0,0,1,0,.376l-.676,1.127a6.069,6.069,0,0,0,1.2,1.2l1.2-.676h.376c.3.15.526.225.826.376L5.2,12.8Zm.976-3.455A2.929,2.929,0,1,1,9.4,7.848,3.035,3.035,0,0,1,6.473,10.777Zm0-5.107a2.1,2.1,0,0,0-2.1,2.1h0a2.1,2.1,0,0,0,2.1,2.1h0a2.1,2.1,0,0,0,2.1-2.1h0a2.149,2.149,0,0,0-2.1-2.1Z" transform="translate(0.55 -0.75)" fill="#bd932e"/>
          </g>
        </g>
        <g id="Group_1715_1_" transform="translate(20.902 41.39)">
          <g id="Path_3619_1_" transform="translate(0 0)">
            <path id="Path_331" d="M13.669,1.5H4.656L3.154-.224H.3V-1.2H3.6L5.107.452h8.562V1.5Z" transform="translate(-0.3 1.2)" fill="#3475a6"/>
          </g>
        </g>
        <g id="Group_1717_1_" transform="translate(33.012 41.349)">
          <g id="Path_3621_1_" transform="translate(0 0)">
            <path id="Path_332" d="M3.863,7.519a3.081,3.081,0,0,1-.826-.075,1.037,1.037,0,0,1-.3-.225l-.15-.751H2.36l-.676.376a.335.335,0,0,1-.376,0A4.023,4.023,0,0,1,.182,5.716a.335.335,0,0,1,0-.376l.451-.676a.276.276,0,0,1-.075-.225l-.751-.15a.468.468,0,0,1-.225-.376,5.549,5.549,0,0,1,0-1.577,1.037,1.037,0,0,1,.225-.3l.751-.15c0-.075,0-.15.075-.15L.182,1.059a.335.335,0,0,1,0-.376A4.023,4.023,0,0,1,1.309-.443a.335.335,0,0,1,.376,0l.676.376a.233.233,0,0,1,.15-.075l.15-.751c.15-.15.225-.225.376-.225a5.549,5.549,0,0,1,1.577,0,1.037,1.037,0,0,1,.3.225l.15.751c.075,0,.225,0,.225.075l.676-.376a.335.335,0,0,1,.376,0A4.023,4.023,0,0,1,7.468.684a.335.335,0,0,1,0,.376l-.376.676a.233.233,0,0,1,.075.15l.751.15c.15,0,.225.15.225.3a5.549,5.549,0,0,1,0,1.577c0,.15-.075.225-.225.3l-.751.15c0,.15,0,.225-.075.225l.376.676a.335.335,0,0,1,0,.376A2.209,2.209,0,0,1,6.416,6.768a.335.335,0,0,1-.376,0l-.676-.376c0,.075-.15.075-.15.075l-.15.751c0,.15-.15.225-.3.225A3.657,3.657,0,0,1,3.863,7.519Zm-.376-.826a1.831,1.831,0,0,0,.9,0l.15-.676.225-.225a1.068,1.068,0,0,0,.451-.15.341.341,0,0,1,.376,0l.6.376a4.532,4.532,0,0,0,.6-.6L6.416,4.74a.341.341,0,0,1,0-.376l.225-.451q0-.113.225-.225l.676-.15a1.831,1.831,0,0,0,0-.9l-.676-.15q-.225-.113-.225-.225l-.225-.451a.341.341,0,0,1,0-.376l.376-.6a2.286,2.286,0,0,0-.6-.6l-.6.3a.341.341,0,0,1-.376,0,1.068,1.068,0,0,0-.451-.15C4.689.308,4.539.233,4.539.158L4.313-.518a1.831,1.831,0,0,0-.9,0l-.15.826q0,.113-.225.225a1.068,1.068,0,0,0-.451.15.341.341,0,0,1-.376,0l-.6-.376-.6.6.376.676a.335.335,0,0,1,0,.376.805.805,0,0,0-.15.451l-.225.225-.676.15a1.831,1.831,0,0,0,0,.9l.676.15.225.225a1.068,1.068,0,0,0,.15.451.341.341,0,0,1,0,.376l-.376.6.6.6.676-.376a.341.341,0,0,1,.376,0,.574.574,0,0,0,.376.15l.225.225Zm.376-1.728A1.859,1.859,0,0,1,1.985,3.087h0A1.987,1.987,0,0,1,3.938,1.135h0A1.859,1.859,0,0,1,5.815,3.012h0A1.939,1.939,0,0,1,3.863,4.965Zm0-3A1.091,1.091,0,0,0,2.736,3.012h0a1.172,1.172,0,0,0,1.127,1.2h0A1.155,1.155,0,0,0,4.989,3.087h0a.989.989,0,0,0-.976-1.127Z" transform="translate(0.475 1.175)" fill="#bd932e"/>
          </g>
        </g>
        <g id="Group_1722_1_" transform="translate(0 0)">
          <g id="Group_1721_1_" transform="translate(0 0)">
            <g id="Group_1720_1_">
              <g id="Group_1719_1_">
                <g id="Group_1718_1_">
                  <g id="Path_3622_1_">
                    <path id="Path_333" d="M23.04,5.78a2.424,2.424,0,0,0-.6-1.577c-.976-.976-2.854-2.629-4.807-2.7C15,1.424,12.6,2.626,11.774,4.428a4.083,4.083,0,0,0,.376,3.831,3.427,3.427,0,0,0-3.38.451,5.277,5.277,0,0,0-1.352,5.934,3.266,3.266,0,0,0,.3.526,3.882,3.882,0,0,0-3.079,2.253,4.587,4.587,0,0,0-.376,3.831c-1.953,1.127-2.629,3.605-1.577,6.084a4.117,4.117,0,0,0,1.878,2.028,8.209,8.209,0,0,0-1.127.6A6.258,6.258,0,0,0,1.785,35a6.02,6.02,0,0,0,2.4,4.507,1.531,1.531,0,0,0,1.5.15,3.585,3.585,0,0,0-.376,2.629c.376,1.652,2.178,3,5.483,4.131,1.2,4.431,4.582,5.032,6.084,5.032h.526c2.4-.075,4.582-1.352,5.107-3,.3-.976.526-5.333.6-10.891v-.075C23.191,26.285,23.115,10.212,23.04,5.78ZM21.313,48.141c-.3.976-1.652,1.878-3.38,2.1a22.967,22.967,0,0,0,.15-5.934c-.376-1.2-2.328-2.929-2.554-3.155a.536.536,0,0,0-.826.075h0a.536.536,0,0,0,.075.826h0a7.037,7.037,0,0,1,2.178,2.629,28.266,28.266,0,0,1-.15,5.633h0a5.358,5.358,0,0,1-5.032-4.507.617.617,0,0,0-.376-.376c-3.079-1.052-4.732-2.178-5.032-3.455-.376-1.427,1.127-3.079,2.4-4.507.376-.451.751-.826,1.127-1.352a.683.683,0,0,0-.075-.826.569.569,0,0,0-.751.075c-.15.15-.3.376-.451.526v.075C7.192,37.551,5.54,38.9,4.864,38.452a4.553,4.553,0,0,1-1.878-3.605,4.575,4.575,0,0,1,1.2-4.056c.526-.526,1.5-.526,3.079-.526h.676a.513.513,0,0,0,.526-.526v-.075a.535.535,0,0,0-.225-.451,1.043,1.043,0,0,0-.826-.15c-1.052-.075-3-.376-3.831-2.178-.676-1.652-.526-3.68.976-4.657a7.537,7.537,0,0,0,2.253,2.1.814.814,0,0,0,.826,0,.814.814,0,0,0,0-.826c-.075,0-.15-.075-.225-.15-2.7-1.652-2.7-3.981-1.878-5.483a2.335,2.335,0,0,1,2.929-1.352c1.577,2.7,3.831,5.858,5.333,6.534h0a1.037,1.037,0,0,0-.3.225,35.357,35.357,0,0,0-1.577,3.906.481.481,0,0,0,.451.6h.075a.5.5,0,0,0,.526-.451A35.9,35.9,0,0,1,14.4,23.731a.642.642,0,0,0,0-.526,5.211,5.211,0,0,0,3.38-.225.564.564,0,0,0,.3-.676h0a.074.074,0,0,0-.075-.075h0A.606.606,0,0,0,17.332,22h0a4.556,4.556,0,0,1-3.155,0c-1.427-.6-4.206-4.657-5.783-7.886A4.223,4.223,0,0,1,9.446,9.611c1.427-1.127,3.23,0,4.582,1.127a.6.6,0,0,0,.826-.075.5.5,0,0,0-.075-.751C12.9,8.033,12.15,6.231,12.75,4.879S15.379,2.55,17.482,2.55c1.652.075,3.38,1.728,3.981,2.4a1.13,1.13,0,0,1,.3.826c0,3.53.075,7.661.075,12.017a4.756,4.756,0,0,0-1.953-1.2,8.775,8.775,0,0,0-3.155-.676.565.565,0,0,0-.075,1.127h.075c1.127,0,4.431.6,5.032,2.854,0,.075,0,.15.075.15,0,2.929,0,5.934-.075,8.863a9.417,9.417,0,0,1-3.981-.751.5.5,0,0,0-.676.225v.075a.72.72,0,0,0,.15.676,12.26,12.26,0,0,0,3.981.9,1.278,1.278,0,0,0,.526-.075c0,2.479-.075,4.882-.075,7.06-1.127.15-3.831.376-5.183-.3h-.075c-1.352-.526-2.7-3.155-3.155-4.431a.615.615,0,0,0-.751-.3.552.552,0,0,0-.3.6c.451,1.352,2.028,4.356,3.831,5.107a7.822,7.822,0,0,0,3.455.6c.751,0,1.5-.075,2.253-.15a84.9,84.9,0,0,1-.451,9.989Z" transform="translate(-1.738 -1.496)" fill="#3475a6"/>
                  </g>
                </g>
              </g>
            </g>
          </g>
        </g>
      </g>
    </g>
  </g>
</svg>
