<svg xmlns="http://www.w3.org/2000/svg" width="56.522" height="55.06" viewBox="0 0 56.522 55.06">
  <g id="software-engineer-bootcamp-logo" transform="translate(-1.53 -0.61)">
    <ellipse id="Ellipse_162" data-name="Ellipse 162" cx="28.261" cy="4.378" rx="28.261" ry="4.378" transform="translate(1.53 46.913)" fill="#e0e0e0" style="mix-blend-mode: multiply;isolation: isolate"/>
    <g id="Group_5506" data-name="Group 5506" transform="translate(1.581 0.61)">
      <g id="Group_137" data-name="Group 137">
        <g id="Path_77" data-name="Path 77" transform="translate(0 6.759)">
          <path id="Path_8814" data-name="Path 8814" d="M52.972,46.064h0L4.538,45.946A2.938,2.938,0,0,1,1.6,43.008l.1-30.186v-.073A2.938,2.938,0,0,1,4.641,9.81H15.433V10.9H4.649a1.844,1.844,0,0,0-1.344.522,1.881,1.881,0,0,0-.551,1.33L2.628,42.956a1.9,1.9,0,0,0,.551,1.337,1.851,1.851,0,0,0,1.322.551l48.441.132h0A1.866,1.866,0,0,0,54.816,43.1l.132-30.215A1.888,1.888,0,0,0,53.075,11H42.137V9.906L53.06,9.95A2.938,2.938,0,0,1,56,12.888h0l-.1,30.171a2.938,2.938,0,0,1-.845,2.152,2.894,2.894,0,0,1-2.086.852Z" transform="translate(-1.6 -9.81)" fill="#3475a6"/>
        </g>
        <g id="Group_135" data-name="Group 135" transform="translate(3.739 9.535)">
          <g id="Ellipse_12" data-name="Ellipse 12">
            <circle id="Ellipse_148" data-name="Ellipse 148" cx="0.999" cy="0.999" r="0.999" fill="#bd932e"/>
          </g>
          <g id="Ellipse_13" data-name="Ellipse 13" transform="translate(3.129)">
            <circle id="Ellipse_149" data-name="Ellipse 149" cx="0.999" cy="0.999" r="0.999" fill="#bd932e"/>
          </g>
          <g id="Ellipse_14" data-name="Ellipse 14" transform="translate(6.296)">
            <circle id="Ellipse_150" data-name="Ellipse 150" cx="0.999" cy="0.999" r="0.999" fill="#bd932e"/>
          </g>
        </g>
        <g id="Line_30" data-name="Line 30" transform="translate(0.066 13.422)">
          <path id="Path_8815" data-name="Path 8815" d="M15.288,19.967H2.234a.544.544,0,0,1,0-1.087H15.288a.544.544,0,0,1,0,1.087Z" transform="translate(-1.69 -18.88)" fill="#3475a6"/>
        </g>
        <g id="Line_31" data-name="Line 31" transform="translate(40.096 13.422)">
          <path id="Path_8816" data-name="Path 8816" d="M69.778,19.967H56.724a.544.544,0,0,1-.544-.544h0a.544.544,0,0,1,.544-.544H69.778a.544.544,0,0,1,.544.544h0a.544.544,0,0,1-.544.544Z" transform="translate(-56.18 -18.88)" fill="#3475a6"/>
        </g>
        <g id="Path_78" data-name="Path 78" transform="translate(17.991 42.469)">
          <path id="Path_8817" data-name="Path 8817" d="M44.456,64.929H26.09V61.741h5.076V58.42h1.087v4.408H27.2v1.014H43.361V62.828H38.3V58.42h1.087v3.321h5.062Z" transform="translate(-26.09 -58.42)" fill="#3475a6"/>
        </g>
        <g id="Path_79" data-name="Path 79" transform="translate(15.721)">
          <path id="Path_8818" data-name="Path 8818" d="M42.908,30.715H26.386a2.681,2.681,0,0,1-2.7-2.674V4.026a2.681,2.681,0,0,1,2.674-2.7H42.908a2.681,2.681,0,0,1,2.7,2.7h0V28.019A2.7,2.7,0,0,1,42.908,30.715Z" transform="translate(-23.183 -0.801)" fill="#3475a6"/>
          <path id="Path_8819" data-name="Path 8819" d="M26.188,31.068A3.232,3.232,0,0,1,23,27.857V3.835A3.232,3.232,0,0,1,26.181.61H42.739a3.225,3.225,0,0,1,3.225,3.225V27.828a3.269,3.269,0,0,1-3.24,3.247H26.188ZM42.732,1.683H26.2a2.152,2.152,0,0,0-2.152,2.152h0v24A2.152,2.152,0,0,0,26.2,29.988H42.717a2.2,2.2,0,0,0,2.16-2.152v-24a2.152,2.152,0,0,0-2.138-2.16Z" transform="translate(-23 -0.61)" fill="#3475a6"/>
        </g>
        <g id="Group_136" data-name="Group 136" transform="translate(22.09 4.973)">
          <g id="Path_80" data-name="Path 80">
            <path id="Path_8820" data-name="Path 8820" d="M36.695,7.38a5.59,5.59,0,0,0-1.161.1C34.5,7.644,34.3,8.048,34.3,8.746v.933h2.468v.3H33.382a1.55,1.55,0,0,0-1.535,1.227,4.511,4.511,0,0,0,0,2.5c.169.735.6,1.234,1.3,1.234h.83v-1.1a1.572,1.572,0,0,1,1.535-1.528h2.432a1.256,1.256,0,0,0,1.234-1.234V8.746a1.352,1.352,0,0,0-1.234-1.264,7.346,7.346,0,0,0-1.264-.1m-1.3.735a.463.463,0,0,1,.463.463.506.506,0,1,1-.463-.463" transform="translate(-31.67 -7.379)" fill="#bd932e"/>
          </g>
          <g id="Path_81" data-name="Path 81" transform="translate(2.689 2.594)">
            <path id="Path_8821" data-name="Path 8821" d="M40.5,10.91v1.1a1.572,1.572,0,0,1-1.535,1.565h-2.41a1.249,1.249,0,0,0-1.227,1.234V17.14c0,.669.566,1.065,1.227,1.234a4.04,4.04,0,0,0,2.432,0c.639-.169,1.234-.536,1.234-1.234v-.933H37.769v-.3h3.673c.735,0,.97-.5,1.234-1.227a4.254,4.254,0,0,0,0-2.5c-.169-.735-.5-1.234-1.234-1.234h-.948Zm-1.4,5.943a.442.442,0,1,1-.47.47h0a.514.514,0,0,1,.47-.47" transform="translate(-35.33 -10.91)" fill="#bd932e"/>
          </g>
        </g>
        <g id="Line_32" data-name="Line 32" transform="translate(21.282 18.417)">
          <path id="Path_8822" data-name="Path 8822" d="M41.832,26.767H31.114a.544.544,0,0,1,0-1.087H41.832a.544.544,0,0,1,.544.544h0a.544.544,0,0,1-.544.544Z" transform="translate(-30.57 -25.68)" fill="#bd932e"/>
        </g>
        <g id="Line_33" data-name="Line 33" transform="translate(21.282 21.444)">
          <path id="Path_8823" data-name="Path 8823" d="M41.832,30.887H31.114a.544.544,0,0,1,0-1.087H41.832a.544.544,0,0,1,.544.544h0a.544.544,0,0,1-.544.544Z" transform="translate(-30.57 -29.8)" fill="#bd932e"/>
        </g>
        <g id="Line_34" data-name="Line 34" transform="translate(21.282 24.713)">
          <path id="Path_8824" data-name="Path 8824" d="M41.832,35.337H31.114a.544.544,0,1,1,0-1.087H41.832a.544.544,0,0,1,.544.544h0a.544.544,0,0,1-.544.544Z" transform="translate(-30.57 -34.25)" fill="#bd932e"/>
        </g>
        <g id="Path_82" data-name="Path 82" transform="translate(33.499 0.382)">
          <path id="Path_8825" data-name="Path 8825" d="M51.843,6.728H47.2V1.13h1.087V5.648h3.556Z" transform="translate(-47.2 -1.13)" fill="#3475a6"/>
        </g>
      </g>
    </g>
  </g>
</svg>
